<?xml version="1.0" encoding="UTF-8"?>
<svg width="210mm" height="297mm" version="1.1" viewBox="0 0 210 297" xmlns="http://www.w3.org/2000/svg">
<defs>
<clipPath id="b">
<rect transform="scale(1,-1)" x="318.51" y="-247.22" width="134.25" height="196.55" ry="4.6756" stroke-width=".76496"/>
</clipPath>
<clipPath id="a">
<path d="m0 500h500v-500h-500z"/>
</clipPath>
</defs>
<g transform="matrix(1.5643 0 0 -1.5111 -498.25 373.56)" clip-path="url(#b)">
<g clip-path="url(#a)">
<g transform="translate(80.998 266.9)">
<path d="m0 0s0.177 7.305-4.631 12.503c-6.784 7.336-21.824 8.73-21.824 8.73s3.124-13.208 9.275-17.763c7.223-5.348 17.18-3.47 17.18-3.47" fill="#30493e"/>
</g>
<g transform="translate(58.427 397.27)">
<path d="m0 0c-4.398 0-7.976-3.578-7.976-7.976s3.578-7.975 7.976-7.975 7.976 3.577 7.976 7.975-3.578 7.976-7.976 7.976m0-17.397c-5.195 0-9.421 4.227-9.421 9.421 0 5.195 4.226 9.421 9.421 9.421s9.421-4.226 9.421-9.421c0-5.194-4.226-9.421-9.421-9.421" fill="#30493e"/>
</g>
<g transform="translate(66.043 85.35)">
<path d="m 0,0 c 0,0 7.304,0.218 12.235,5.299 6.959,7.17 7.539,22.263 7.539,22.263 0,0 -13.02,-3.832 -17.236,-10.22 C -2.413,9.841 0,0 0,0" fill="#30493e"/>
</g>
<g transform="translate(221.57 65.778)">
<path d="m0 0s-7.304-0.203-12.52 4.586c-7.36 6.757-8.809 21.792-8.809 21.792s13.219-3.076 17.796-9.211c5.374-7.203 3.533-17.167 3.533-17.167" fill="#30493e"/>
</g>
<g transform="translate(346.63 190.94)">
<path d="m0 0s-7.164-1.437-13.116 2.397c-8.399 5.413-12.374 19.985-12.374 19.985s13.55-0.791 19.099-6.062c6.518-6.188 6.391-16.32 6.391-16.32" fill="#30493e"/>
</g>
<g transform="translate(418.08 65.616)">
<path d="m 0,0 c 0,0 -1.256,7.199 2.729,13.052 5.623,8.259 20.291,11.864 20.291,11.864 0,0 -1.134,-13.525 -6.543,-18.94 C 10.125,-0.383 0,0 0,0" fill="#30493e"/>
</g>
<g transform="translate(292.51 276.15)">
<path d="m 0,0 c 0,0 -1.992,7.03 1.367,13.263 4.741,8.795 18.958,13.896 18.958,13.896 0,0 0.269,-13.571 -4.553,-19.515 C 10.111,0.664 0,0 0,0" fill="#30493e"/>
</g>
<g transform="translate(434.35 311.18)">
<path d="m0 0s-7.285 0.573-11.963 5.888c-6.601 7.5-6.446 22.604-6.446 22.604s12.818-4.461 16.718-11.047c4.58-7.733 1.691-17.445 1.691-17.445" fill="#30493e"/>
</g>
<g transform="translate(354.48 433.3)">
<path d="m0 0c-4.398 0-7.976-3.578-7.976-7.976 0-4.397 3.578-7.975 7.976-7.975 4.397 0 7.976 3.578 7.976 7.975 0 4.398-3.579 7.976-7.976 7.976m0-17.396c-5.195 0-9.421 4.226-9.421 9.42 0 5.195 4.226 9.422 9.421 9.422 5.194 0 9.421-4.227 9.421-9.422 0-5.194-4.227-9.42-9.421-9.42" fill="#30493e"/>
</g>
<g transform="translate(193.59 332.3)">
<path d="m0 0c-4.397 0-7.976-3.578-7.976-7.976s3.579-7.976 7.976-7.976c4.398 0 7.976 3.578 7.976 7.976s-3.578 7.976-7.976 7.976m0-17.397c-5.195 0-9.421 4.226-9.421 9.421s4.226 9.421 9.421 9.421 9.421-4.226 9.421-9.421-4.226-9.421-9.421-9.421" fill="#30493e"/>
</g>
<g transform="translate(173.99 143.5)">
<path d="m0 0c-4.397 0-7.976-3.578-7.976-7.976s3.579-7.975 7.976-7.975c4.398 0 7.976 3.577 7.976 7.975s-3.578 7.976-7.976 7.976m0-17.397c-5.195 0-9.421 4.226-9.421 9.421s4.226 9.421 9.421 9.421 9.421-4.226 9.421-9.421-4.226-9.421-9.421-9.421" fill="#30493e"/>
</g>
<g transform="translate(309.06 109.66)">
<path d="m0 0c-4.397 0-7.976-3.577-7.976-7.976 0-4.397 3.579-7.975 7.976-7.975s7.976 3.578 7.976 7.975c0 4.399-3.579 7.976-7.976 7.976m0-17.396c-5.195 0-9.421 4.226-9.421 9.42 0 5.196 4.226 9.421 9.421 9.421s9.421-4.225 9.421-9.421c0-5.194-4.226-9.42-9.421-9.42" fill="#30493e"/>
</g>
<g transform="translate(113.45 177.97)">
<path d="m0 0s-15.835 17.803-21.396 7.725c-3.162-5.729 10.373-9.581 21.396-7.725" fill="#779b45"/>
</g>
<g transform="translate(128.07 143.47)">
<path d="M 0,0 C 0,0 0.103,16.422 16.861,24.207 28.521,29.625 48.585,26.72 45.626,16.346 43.161,7.701 29.355,11.559 18.042,10.563 6.728,9.569 0,0 0,0" fill="#779b45"/>
</g>
<g transform="translate(112.62 215.22)">
<path d="m0 0c3.27-15.538 6.247-31.157 8.237-46.916 1.667-13.197 2.562-26.466 2.938-39.76 0.241-8.52 0.301-17.046 0.308-25.569 1e-3 -0.772 1.201-0.774 1.2 0-0.013 14.466-0.167 28.944-1.131 43.382-0.919 13.768-2.651 27.458-4.969 41.057-1.605 9.413-3.459 18.782-5.426 28.124-0.159 0.756-1.316 0.436-1.157-0.318" fill="#3f6130"/>
</g>
<g transform="translate(131.09 190.3)">
<path d="M 0,0 C 0,0 3.839,23.515 13.933,17.982 19.671,14.837 10.304,4.335 0,0" fill="#779b45"/>
</g>
<g transform="translate(132.43 183.35)">
<path d="m0 0s22.907 6.556 22.207-4.934c-0.398-6.531-13.891-2.538-22.207 4.934" fill="#779b45"/>
</g>
<g transform="translate(139.73 202.66)">
<path d="m0 0c-7.251-9.284-13.671-19.245-19.12-29.689-0.179-0.342 0.339-0.646 0.518-0.303 5.424 10.396 11.808 20.326 19.026 29.567 0.235 0.301-0.187 0.729-0.424 0.425" fill="#3f6130"/>
</g>
<g transform="translate(127.15 182.98)">
<path d="m0 0c5.816-0.229 11.587-1.006 17.256-2.323 0.376-0.087 0.536 0.491 0.16 0.579-5.721 1.329-11.548 2.113-17.416 2.344-0.386 0.015-0.385-0.585 0-0.6" fill="#3f6130"/>
</g>
<g transform="translate(99.552 183.48)">
<path d="m0 0c7.441-1.999 14.395-5.541 20.376-10.399 0.297-0.242 0.724 0.18 0.424 0.423-6.063 4.925-13.095 8.528-20.64 10.555-0.374 0.1-0.533-0.478-0.16-0.579" fill="#3f6130"/>
</g>
<g transform="translate(114.81 150.94)">
<path d="m0 0c1.464-1.774-29.946 37.676-40.687 22.804-6.61-9.151 14.53-19.939 40.687-22.804" fill="#779b45"/>
</g>
<g transform="translate(118.13 126.97)">
<path d="m 0,0 c 0,0 -6.185,16.95 -24.591,18.575 -12.808,1.131 -30.69,-8.422 -24.381,-17.172 5.258,-7.292 16.93,1.029 27.908,3.94 C -10.086,8.253 0,0 0,0" fill="#779b45"/>
</g>
<g transform="translate(76.799 136.15)">
<path d="m0 0c7.796 3.603 16.829 4.268 25.082 1.894 3.822-1.1 7.444-2.828 10.528-5.358 2.811-2.306 5.143-5.144 7.024-8.248 2.165-3.573 3.735-7.47 4.889-11.477 0.107-0.371 0.686-0.212 0.579 0.16-2.093 7.264-5.629 14.384-11.401 19.425-6.236 5.447-14.835 7.779-23.009 7.472-4.84-0.18-9.599-1.319-13.995-3.35-0.35-0.162-0.046-0.679 0.303-0.518" fill="#3f6130"/>
</g>
<g transform="translate(84.507 167.99)">
<path d="m0 0c10.839-4.71 21.129-10.616 30.598-17.694 2.784-2.082 5.492-4.263 8.133-6.524 0.291-0.25 0.718 0.173 0.424 0.425-9.041 7.74-18.926 14.453-29.514 19.897-3.063 1.575-6.18 3.042-9.338 4.414-0.351 0.152-0.657-0.365-0.303-0.518" fill="#3f6130"/>
</g>
<g transform="translate(159.25 164.81)">
<path d="m0 0c-14.204-1.281-26.849-10.322-32.5-23.44-1.548-3.592-2.547-7.378-2.986-11.264-0.043-0.384 0.557-0.38 0.6 0 1.566 13.872 10.713 26.061 23.639 31.359 3.589 1.472 7.384 2.397 11.247 2.744 0.382 0.036 0.385 0.635 0 0.601" fill="#3f6130"/>
</g>
<g transform="translate(132.93 132.65)">
<path d="M 0,0 C 0,0 13.072,19.921 20.042,10.762 24.005,5.554 11.177,-0.229 0,0" fill="#779b45"/>
</g>
<g transform="translate(145.81 140.4)">
<path d="m0 0c-4.185-2.008-8.41-4.044-12.235-6.694-3.297-2.284-6.21-5.047-9.085-7.828-0.278-0.27 0.147-0.694 0.424-0.425 2.89 2.797 5.817 5.579 9.144 7.858 3.778 2.59 7.935 4.595 12.055 6.571 0.348 0.167 0.044 0.684-0.303 0.518" fill="#3f6130"/>
</g>
<g transform="translate(136.71 126.19)">
<path d="m0 0s15.234 0.574 10.911-6.62c-3.37-5.609-9.763 1.62-10.911 6.62" fill="#779b45"/>
</g>
<g transform="translate(144.88 121.27)">
<path d="m0 0c-3.017 1.974-6.03 4.075-9.274 5.67-2.159 1.06-4.442 1.868-6.641 2.841-0.35 0.155-0.655-0.363-0.302-0.518 2.198-0.972 4.482-1.78 6.639-2.842 3.245-1.594 6.258-3.695 9.275-5.67 0.324-0.211 0.625 0.308 0.303 0.519" fill="#3f6130"/>
</g>
<g transform="translate(114.05 173.99)">
<path d="m0 0s-15.242 0.271-10.777-6.836c3.481-5.541 9.728 1.815 10.777 6.836" fill="#779b45"/>
</g>
<g transform="translate(106.9 169.06)">
<path d="m 0,0 c 3.303,2.379 6.912,4.265 10.489,6.19 0.34,0.183 0.037,0.702 -0.302,0.518 C 6.609,4.782 3,2.897 -0.303,0.519 -0.613,0.295 -0.314,-0.227 0,0" fill="#3f6130"/>
</g>
<g transform="translate(124.59 164)">
<path d="M 0,0 C 0,0 5.759,14.114 10.531,7.209 14.25,1.826 5.028,-1.016 0,0" fill="#779b45"/>
</g>
<g transform="translate(131.61 169.13)">
<path d="m0 0c-3.51-2.11-6.685-4.702-9.884-7.246-0.303-0.24 0.125-0.662 0.424-0.425 3.16 2.513 6.296 5.068 9.763 7.153 0.331 0.199 0.03 0.718-0.303 0.518" fill="#3f6130"/>
</g>
<g transform="translate(119.76 178.73)">
<path d="M 0,0 C 0,0 -14.75,25.659 -14.658,38.072 -14.567,50.485 -6.939,55.549 -0.623,48.7 12.32,34.67 0,0 0,0" fill="#779b45"/>
</g>
<g transform="translate(115.1 217.29)">
<path d="m0 0c2.285-13.138 3.125-26.484 4.579-39.727 0.042-0.379 0.642-0.383 0.6 0-1.46 13.296-2.306 26.696-4.6 39.886-0.067 0.38-0.645 0.219-0.579-0.159" fill="#3f6130"/>
</g>
<g transform="translate(152.56 72.744)">
<path d="m0 0c-1.892-9.465-4.789-15.975-7.553-20.367-0.67-1.065-1.838-1.71-3.096-1.71h-34.431c-1.257 0-2.425 0.645-3.095 1.71-2.764 4.392-5.662 10.902-7.555 20.367-1.162 5.812-1.083 11.496-0.309 16.749 0.548 3.73 1.445 7.242 2.494 10.432 0.575 1.75 1.198 3.403 1.833 4.938h47.695c0.635-1.535 1.256-3.188 1.833-4.938 0.382-1.165 0.745-2.373 1.077-3.619 1.863-6.969 2.793-15.131 1.107-23.562" fill="#008cb4"/>
</g>
<g transform="translate(153.32 78.426)">
<path d="m0 0c-0.011-0.185-0.025-0.367-0.041-0.55-0.091 0.033-0.183 0.069-0.274 0.104-4.704 1.849-8.61 5.427-10.653 10.073-2.072 4.709-2.247 10.163-0.413 14.972 0.119 0.314 0.629 0.177 0.507-0.141-1.01-2.649-1.415-5.482-1.195-8.31 0.388-5.012 2.736-9.744 6.611-12.966 1.633-1.36 3.485-2.431 5.458-3.182" fill="#005477"/>
</g>
<g transform="translate(147.53 57.003)">
<path d="m0 0c0-1e-3 0-3e-3 -2e-3 -5e-3 -0.212-0.448-0.427-0.883-0.642-1.301 0.268 2.421 0.284 4.869 0.057 7.304-0.725 7.787-3.918 15.387-9.138 21.23-2.822 3.158-6.251 5.893-10.149 7.597-2.148 0.937-4.492 1.545-6.808 1.903-1.609 0.246-3.221 0.293-4.788 0.011 2.137-1.925 3.998-4.14 5.507-6.594 0.707-1.152 1.449-2.456 1.337-3.857-0.088-1.09-0.714-2.057-1.559-2.724-2.213-1.745-5.311-1.112-7.71-0.129-5.756 2.358-9.537 7.534-13.043 12.42-0.198 0.276 0.259 0.541 0.456 0.267 1.864-2.597 3.738-5.208 5.999-7.479 1.854-1.864 3.979-3.494 6.393-4.558 2.428-1.07 5.901-1.92 7.99 0.261 2.212 2.308-0.1 5.38-1.575 7.413-1.291 1.781-2.787 3.396-4.437 4.845-0.692-0.166-1.373-0.399-2.039-0.713-0.305-0.147-0.572 0.309-0.266 0.455 0.598 0.283 1.207 0.507 1.824 0.676-0.22 0.185-0.44 0.37-0.665 0.549-0.265 0.211 0.111 0.582 0.373 0.373 0.313-0.252 0.62-0.508 0.925-0.77 1.659 0.358 3.376 0.355 5.104 0.109 2.569-0.367 5.153-1.054 7.518-2.124 7.684-3.479 13.513-10.602 16.637-18.305 2.161-5.328 3.107-11.134 2.701-16.854" fill="#005477"/>
</g>
<g transform="translate(142.66 50.744)">
<path d="m0 0c-0.171-0.035-0.345-0.059-0.521-0.07-0.312 2.221-1.111 4.367-2.359 6.264-3.556 5.404-10.829 8.073-16.984 5.885-3.272-1.162-5.538-3.74-6.567-7.022-0.524-1.672-0.73-3.398-0.77-5.135h-0.519c0.057 2.425 0.417 4.818 1.469 7.05 3.008 6.382 10.989 7.699 17.029 5.125 5.034-2.149 8.457-6.838 9.222-12.097" fill="#005477"/>
</g>
<g transform="translate(136.68 72.302)">
<path d="m0 0c-0.178-3.662-4.433-4.708-7.376-4.047-2.957 0.662-5.998 2.577-5.259 6.041 0.67 3.141 3.998 4.542 6.942 4.053 2.969-0.587 5.855-2.722 5.693-6.047m0.499 0.784c-0.334 3.198-3.075 5.182-6.052 5.772-2.51 0.416-5.343-0.338-6.808-2.556-1.333-2.015-1.227-4.846 0.584-6.533 1.978-1.845 5.423-2.694 8.037-2.094 2.504 0.572 4.515 2.758 4.239 5.411" fill="#005477"/>
</g>
<g transform="translate(104.62 65.577)">
<path d="m0 0c-0.809-2.267-2.323-4.006-4.159-5.394-0.071 0.177-0.142 0.356-0.212 0.539 2.639 2.024 4.596 4.73 4.325 8.299-0.359 4.708-4.197 7.643-8.452 8.635-0.02 0.196-0.035 0.396-0.049 0.593 1.498-0.305 2.945-0.841 4.251-1.66 3.657-2.287 5.796-6.809 4.296-11.012" fill="#005477"/>
</g>
<g transform="translate(111.77 63.226)">
<path d="m0 0c-1.143-3.588-3.096-7.047-2.81-10.931 0.041-0.548 0.12-1.093 0.238-1.629h-0.535c-0.063 0.301-0.116 0.608-0.156 0.914-0.47 3.56 0.94 6.813 2.156 10.075 0.682 1.83 1.281 3.706 1.376 5.672 0.088 1.79-0.193 3.58-0.759 5.278-2.3 6.924-8.6 11.077-15.154 13.509 0.017 0.181 0.032 0.364 0.05 0.545 3.27-1.189 6.416-2.746 9.148-4.923 2.715-2.164 4.915-4.949 6.179-8.197 1.311-3.368 1.359-6.882 0.267-10.313" fill="#005477"/>
</g>
<g transform="translate(151.45 96.306)">
<path d="m0 0-54.932-6.812c0.548 3.729 1.445 7.242 2.494 10.431h51.361c0.383-1.165 0.745-2.373 1.077-3.619" fill="#005477"/>
</g>
<g transform="translate(151.91 97.16)">
<path d="m 0,0 c -17.979,-1.286 -35.958,-1.286 -53.936,0 0,0 -4.445,6.752 0.81,11.961 17.292,-1.427 34.733,-1.403 52.316,0 C 4.445,6.752 0,0 0,0" fill="#008cb4"/>
</g>
<g transform="translate(152.76 106.9)">
<path d="m0 0c-2.4-0.362-4.814-0.652-7.23-0.89-8.944-0.879-17.959-1.07-26.938-0.841-7.204 0.18-14.416 0.626-21.569 1.515 0.081 0.165 0.167 0.33 0.262 0.494 3.312-0.404 6.636-0.705 9.964-0.942 8.761-0.619 17.565-0.79 26.343-0.477 6.308 0.225 12.645 0.673 18.897 1.623 0.097-0.16 0.188-0.32 0.271-0.482" fill="#005477"/>
</g>
<g transform="translate(253.37 320.67)">
<path d="m0 0h-10.292c-1.959 4.715-17.211 41.83-19.814 60.913-1.765 12.924-3.124 26.952-2.969 35.548 2.09-1.05 4.582-2.382 4.582-2.382l-4.475 4.991c0.235 3.443 0.83 5.531 1.903 5.588 1.423 0.074 6.235-12.864 11.671-29.908l-2.088-4.247 2.71 2.294c8.087-25.597 17.308-59.407 18.772-72.797" fill="#3f6130"/>
</g>
<g transform="translate(225.38 405.26)">
<path d="m0 0c3.717-17.117 7.879-34.137 12.49-51.035 1.308-4.792 2.653-9.573 4.031-14.345 0.107-0.37 0.686-0.213 0.579 0.159-4.861 16.828-9.284 33.782-13.253 50.842-1.126 4.838-2.214 9.684-3.268 14.538-0.082 0.378-0.661 0.218-0.579-0.159" fill="#16221d"/>
</g>
<g transform="translate(290.85 403.97)">
<path d="m0 0-3.885-3.445c0.339 0.26 2.075 0.745 3.696 1.155-1.248-14.274-3.892-31.788-7.294-42.873-5.653-18.412-12.141-33.421-14.099-38.136h-10.293c2.492 22.806 27.487 104.84 31.065 104.66 1.628-0.085 1.757-9.307 0.81-21.358" fill="#3f6130"/>
</g>
<g transform="translate(284.51 398.05)">
<path d="m0 0c-2.054-15.605-5.226-31.061-9.497-46.21-1.218-4.318-2.526-8.609-3.918-12.874-0.12-0.368 0.459-0.526 0.578-0.16 4.932 15.112 8.775 30.572 11.469 46.239 0.743 4.321 1.395 8.658 1.968 13.005 0.049 0.382-0.55 0.378-0.6 0" fill="#16221d"/>
</g>
<g transform="translate(245.29 320.67)">
<path d="m0 0h-9.887c-2.38 1.658-10.375 7.473-20.825 17.782l3.536 2.732s-2.657-0.648-5.01-1.266c-0.523 0.527-1.052 1.064-1.587 1.611-9.223 9.459-13.966 22.162-16.145 29.836-0.652 2.29 2.007 4.071 3.874 2.593 3.121-2.472 7.356-5.991 12.103-10.388v-4.9l1.854 3.162c10.725-10.176 23.558-24.501 32.087-41.162" fill="#779b45"/>
</g>
<g transform="translate(205.74 360.44)">
<path d="m0 0c8.202-10.736 17.008-21.005 26.39-30.728 2.663-2.759 5.372-5.473 8.123-8.145 0.277-0.269 0.702 0.155 0.424 0.424-9.584 9.309-18.641 19.156-27.103 29.496-2.491 3.044-4.929 6.13-7.316 9.256-0.231 0.302-0.753 4e-3 -0.518-0.303" fill="#3f6130"/>
</g>
<g transform="translate(257.07 320.67)">
<path d="m0 0h-10.614c-0.832 4.453-6.926 37.983-7.146 65.254-0.069 8.405 0.278 16.142 0.9 22.225l3.727-1.596-3.304 4.462v2e-3c2.308 18.333 6.807 25.395 6.807 25.395 1.064 3.285 5.863-16.236 8.437-40.665l-4.514-5.541 4.818 2.484c0.35-3.633 0.645-7.353 0.868-11.107 1.483-24.971 0.208-56.59 0.021-60.913" fill="#779b45"/>
</g>
<g transform="translate(302.69 395.17)">
<path d="m0 0c-0.871-7.358-3.536-26.207-9.527-42.525l-5.036-2.498 4.153 0.172c-0.957-2.436-1.995-4.796-3.113-7.036-6.596-13.19-11.846-20.06-15.617-22.616h-9.932c0.791 3.116 3.61 15.08 11.009 32.442 6.754 15.853 12.128 25.739 16.552 32.271 0.806-1.825 1.708-3.836 1.708-3.668v6.09c2.953 4.022 5.463 6.542 7.68 8.483 0.887 0.775 2.262 0.054 2.123-1.115" fill="#779b45"/>
</g>
<g transform="translate(251.36 320.67)">
<path d="m0 0h-10.646c-3.348 3.091-19.02 18.822-28.68 50.42-2.781 9.094-4.554 15.85-5.951 22.421l5.171 0.073-5.745 2.647c-3.647 17.93-2.645 26.235-1.078 26.874 2.162 0.882 37.323-60.809 46.929-102.44" fill="#a7be56"/>
</g>
<g transform="translate(277.18 377.88)">
<path d="m0 0c-0.878-35.811-9.783-53.71-12.271-57.213h-10.648c-0.929 22.335 2.619 49.77 6.869 72.36l3.026-1.617s-1.347 2.358-2.521 4.266c4.614 23.807 9.862 41.589 11.084 41.082 1.495-0.62 3.222-7.577 4.092-22.295l-4.679-4.677 4.798 2.5c0.448-8.829 0.598-20.21 0.25-34.406" fill="#a7be56"/>
</g>
<g transform="translate(247.43 407.56)">
<path d="m0 0c-0.38-21.751 0.268-43.517 1.958-65.206 0.478-6.13 1.04-12.254 1.682-18.37 0.039-0.38 0.64-0.384 0.6 0-2.269 21.636-3.516 43.376-3.718 65.129-0.057 6.149-0.029 12.299 0.078 18.447 6e-3 0.386-0.594 0.386-0.6 0" fill="#3f6130"/>
</g>
<g transform="translate(294.15 377.6)">
<path d="m0 0c-6.672-14.682-13.579-29.256-20.727-43.712-2.034-4.114-4.087-8.217-6.159-12.312-0.174-0.344 0.344-0.648 0.519-0.303 7.279 14.39 14.327 28.897 21.134 43.517 1.936 4.16 3.852 8.33 5.751 12.507 0.159 0.349-0.359 0.655-0.518 0.303" fill="#3f6130"/>
</g>
<g transform="translate(269.74 407.55)">
<path d="m0 0c-0.674-6.414-1.349-12.829-2.023-19.245-2.369-22.545-4.738-45.093-7.106-67.639h-0.606c0.656 6.242 1.31 12.484 1.966 18.723 2.388 22.722 4.777 45.441 7.164 68.161 0.04 0.386 0.646 0.388 0.605 0" fill="#779b45"/>
</g>
<g transform="translate(248.37 320.67)">
<path d="m0 0h-0.672c-2.553 5.222-5.221 10.383-7.918 15.531-9.921 18.949-20.266 37.959-25.739 58.776-0.099 0.378 0.487 0.537 0.586 0.16 1.533-5.834 3.447-11.561 5.646-17.179 7.763-19.846 18.774-38.177 28.097-57.288" fill="#779b45"/>
</g>
<g transform="translate(284.05 314.91)">
<path d="m0 0c-6e-3 -0.9-0.021-1.878-0.054-2.916-9e-3 -0.322-0.02-0.65-0.034-0.984 0-0.026 0-0.052-2e-3 -0.078-0.194-5.028-0.748-11.334-2.116-17.694-0.062-0.292-0.126-0.586-0.193-0.878-1.315-5.802-3.325-11.602-6.369-16.474-0.136-0.218-0.274-0.432-0.414-0.646-2.056-3.138-4.562-5.86-7.616-7.906-0.265-0.18-0.538-0.354-0.814-0.522-3.592-2.196-7.906-3.488-13.086-3.488-2.824 0-5.39 0.384-7.722 1.09-0.308 0.092-0.61 0.19-0.91 0.294-3.332 1.156-6.166 2.986-8.576 5.294-0.15 0.142-0.296 0.286-0.442 0.432-3.44 3.45-5.988 7.888-7.87 12.706-0.076 0.196-0.152 0.392-0.226 0.59-1.626 4.312-2.732 8.904-3.48 13.346-0.036 0.216-0.07 0.432-0.106 0.646-0.502 3.128-0.83 6.172-1.038 8.976-0.23 3.094-0.314 5.9-0.328 8.212-0.024 3.994 0.158 6.518 0.158 6.518h61.08s0.182-2.524 0.158-6.518" fill="#ed5829"/>
</g>
<g transform="translate(284 311.99)">
<path d="m0 0c-0.01-0.322-0.021-0.65-0.034-0.984-2.718-3.216-6.308-5.548-10.208-7.112-9.046-3.624-19.012-2.84-28.542-2.834-5.036 4e-3 -10.19-0.148-15.092-1.414-2.112-0.544-4.188-1.378-5.994-2.574-0.036 0.216-0.07 0.432-0.106 0.646 1.808 1.156 3.86 1.972 5.942 2.508 9.662 2.494 19.838 0.96 29.68 1.494 8.968 0.488 18.542 2.904 24.354 10.27" fill="#ae3713"/>
</g>
<g transform="translate(281.84 293.23)">
<path d="m0 0c-0.062-0.292-0.126-0.586-0.193-0.878-0.615-0.448-1.255-0.864-1.916-1.242-8.626-4.942-19.023-3.32-28.454-2.736-4.929 0.304-9.937 0.338-14.749-0.918-3.114-0.814-6.236-2.206-8.7-4.324-0.076 0.196-0.152 0.392-0.226 0.59 2.336 1.954 5.212 3.3 8.114 4.134 9.704 2.784 19.769 0.174 29.634 0.408 5.66 0.134 11.942 1.514 16.49 4.966" fill="#ae3713"/>
</g>
<g transform="translate(275.28 275.88)">
<path d="m0 0c-0.137-0.218-0.274-0.432-0.414-0.646-6.482 0.088-13.026 1.248-19.494 0.666-4.784-0.43-9.504-1.592-13.946-3.418-1.73-0.71-3.55-1.518-5.284-2.486-0.15 0.142-0.296 0.286-0.442 0.432 1.816 1.026 3.734 1.878 5.568 2.632 4.276 1.758 8.802 2.894 13.4 3.372 5.04 0.524 10.053 0.05 15.086-0.318 1.784-0.13 3.646-0.228 5.526-0.234" fill="#ae3713"/>
</g>
<g transform="translate(267.25 267.33)">
<path d="m0 0c-0.266-0.18-0.538-0.354-0.814-0.522-2.852 0.268-5.728 0.298-8.594 0.084-3.356-0.252-6.69-0.836-9.93-1.754-0.766-0.218-1.534-0.454-2.284-0.728-0.308 0.092-0.61 0.19-0.91 0.294 0.776 0.312 1.574 0.58 2.374 0.82 3.262 0.98 6.634 1.606 10.026 1.908 3.374 0.3 6.772 0.264 10.132-0.102" fill="#ae3713"/>
</g>
<g transform="translate(284.05 314.91)">
<path d="m0 0c-8e-3 -1.202-0.034-2.538-0.09-3.978l-60.978-4.234c-0.23 3.094-0.314 5.9-0.328 8.212z" fill="#ae3713"/>
</g>
<g transform="translate(286.56 317.64)">
<path d="m0 0c-0.01-0.42-0.029-0.85-0.079-1.29-0.11-1.34-0.381-2.71-0.78-4.11h-64.67c-0.37 1.37-0.611 2.74-0.691 4.11-0.04 0.43-0.05 0.86-0.05 1.29 0 1.8 0.25 3.6 0.741 5.4h64.67c0.63-1.74 0.899-3.54 0.859-5.4" fill="#ed5829"/>
</g>
<g transform="translate(286.56 317.64)">
<path d="m0 0c-0.01-0.42-0.029-0.85-0.079-1.29h-66.141c-0.04 0.43-0.05 0.86-0.05 1.29z" fill="#ae3713"/>
</g>
<g transform="translate(142.09 359.32)">
<path d="m0 0s-10.389 1.976-11.232-8.82-12.964-16.843-15.102-11.984c-2.282 5.186-2.339 24.973 2.161 26.712 5.377 2.077 21.44-1.498 24.173-5.908" fill="#3f6130"/>
</g>
<g transform="translate(117.52 365.08)">
<path d="m0 0c18.617 2.761 24.738-15.147 29.628-28.262l7.236 15.197c-0.056-0.414-2.415-17.522-3.303-24.297 6.236-10.692 18.084-12.385 18.084-12.385s-0.402 22.313-4.147 38.879c-3.143 1.84-8.706 5.145-8.706 5.145l7.547-0.612c-0.868 3.009-1.881 5.687-3.057 7.822-7.685 13.954-21.084 7.085-21.084 7.085z" fill="#779b45"/>
</g>
<g transform="translate(136.54 371.7)">
<path d="m0 0c7.979-1.314 13.364-9.231 16.683-15.947 0.159-0.323 0.655-0.063 0.495 0.26-3.424 6.929-8.949 14.894-17.153 16.246-0.355 0.058-0.376-0.501-0.025-0.559" fill="#3f6130"/>
</g>
<g transform="translate(108.49 383.41)">
<path d="m0 0s6.86-9.542 1.494-23.307c0 0-5.919-0.927-9.293 5.17-3.374 6.096-4.279 13.629-6.291 14.278-2.012 0.648 3.836 6.271 14.09 3.859" fill="#3f6130"/>
</g>
<g transform="translate(108.49 383.41)">
<path d="m0 0c-6.81-1.595-8.89-7.337-11.591-14.328l-5.533 3.808 3.388-8.023c-0.499-1.287-0.999-2.547-1.524-3.747-3.734-8.515-19.362-7.266-19.362-7.266 1.994 3.342 3.321 6.681 4.32 9.906l7.202 4.913-6.13-1.089c2.26 8.856 3.006 16.412 10.13 20.055 10.636 5.44 19.1-4.229 19.1-4.229" fill="#779b45"/>
</g>
<g transform="translate(100.71 388.52)">
<path d="m0 0c-5.448-2.179-9.797-6.596-11.922-12.061-0.131-0.336 0.402-0.507 0.532-0.172 2.076 5.337 6.337 9.613 11.651 11.738 0.334 0.133 0.071 0.628-0.261 0.495" fill="#3f6130"/>
</g>
<g transform="translate(86.402 347.24)">
<path d="m0 0s9.622 4.387 13.006-5.899c3.384-10.287 16.595-13.28 17.517-8.053 0.985 5.579-3.661 24.814-8.446 25.434-5.716 0.74-20.47-6.55-22.077-11.482" fill="#779b45"/>
</g>
<g transform="translate(108.9 358.66)">
<path d="m0 0c-18.74-1.741-20.43-20.591-22.065-34.492l-10.64 13.043c0.154-0.389 6.51-16.447 8.982-22.816-3.517-11.868-14.623-16.328-14.623-16.328s-4.911 21.77-5.21 38.752c2.616 2.533 7.234 7.066 7.234 7.066l-7.185-2.388c0.128 3.129 0.476 5.971 1.111 8.324 4.149 15.381 18.797 11.892 18.797 11.892z" fill="#a7be56"/>
</g>
<g transform="translate(88.624 361.1)">
<path d="m0 0c-7.611-3.246-11.078-12.339-12.747-19.834-0.084-0.376 0.495-0.537 0.579-0.16 1.638 7.36 4.995 16.287 12.471 19.476 0.354 0.151 0.049 0.668-0.303 0.518" fill="#779b45"/>
</g>
<g transform="translate(117.44 410.94)">
<path d="m0 0s-11.099-12.877-5.117-33.394c0 0 8.411-2.088 14.048 6.267 5.637 8.356 7.9 19.095 10.881 19.773 2.982 0.679-4.729 9.525-19.812 7.354" fill="#779b45"/>
</g>
<g transform="translate(117.44 410.94)">
<path d="m0 0c9.609-3.165 11.876-11.704 14.879-22.12l8.456 4.784-5.902-11.131c0.556-1.917 1.115-3.797 1.72-5.593 4.296-12.744 26.975-12.933 26.975-12.933-2.448 5.069-3.935 10.05-4.964 14.823l-9.753 7.997 8.694-2.349c-2.13 13.048-2.243 24.03-12.045 30.187-14.634 9.192-28.06-3.665-28.06-3.665" fill="#a7be56"/>
</g>
<g transform="translate(128.93 416.72)">
<path d="m0 0c7.404-3.729 13.033-10.499 15.332-18.466 0.106-0.371 0.686-0.213 0.578 0.159-2.339 8.108-8.069 15.028-15.607 18.825-0.344 0.173-0.648-0.344-0.303-0.518" fill="#779b45"/>
</g>
<g transform="translate(107.58 395.18)">
<path d="m0 0s-2.317 11.636-12.535 13.019c-10.218 1.384-14.323 5.672-14.323 5.672s0.29-25.846 26.858-18.691" fill="#3f6130"/>
</g>
<g transform="translate(116.95 324.57)">
<path d="m0 0s2.018 8.498 9.572 9.24c7.555 0.743 10.691 3.787 10.691 3.787s-0.91-19.007-20.263-13.027" fill="#3f6130"/>
</g>
<g transform="translate(95.257 425.62)">
<path d="m0 0c5.792-12.958 10.044-26.605 13.313-40.403 3.883-16.394 6.331-33.13 7.373-49.944 0.626-10.109 0.732-20.248 0.293-30.367-0.05-1.158 1.75-1.156 1.8 0 0.776 17.891-0.164 35.837-2.636 53.57-2.2 15.774-5.604 31.416-10.456 46.592-2.331 7.29-5.009 14.472-8.133 21.46-0.472 1.056-2.023 0.141-1.554-0.908" fill="#3f6130"/>
</g>
<g transform="translate(144.52 310.31)">
<path d="m0 0v-42.169c0-3.208-2.603-5.809-5.811-5.809h-38.151c-3.208 0-5.809 2.601-5.809 5.809v42.169z" fill="#ee9129"/>
</g>
<g transform="translate(103.42 272.26)">
<path d="m0 0c-0.755-3.633-2.675-6.89-5.339-9.378-0.21 0.099-0.414 0.209-0.608 0.335 3.946 3.642 6.132 9.008 5.573 14.546-0.555 5.511-3.75 10.274-8.299 13.053v0.797c1.145-0.656 2.219-1.436 3.204-2.33 4.683-4.254 6.753-10.837 5.469-17.023" fill="#fcba5e"/>
</g>
<g transform="translate(143.85 265.44)">
<path d="m0 0c-0.137-0.262-0.293-0.513-0.469-0.749-8.684-1.163-17.525 2.268-22.852 9.392-1.332 1.781-2.398 3.756-3.124 5.859-0.94 2.726-1.202 5.608-1.592 8.449-0.681 4.969-2.383 11.333-8.053 12.592-0.414 0.093-0.238 0.729 0.176 0.637 5.148-1.143 7.436-6.547 8.24-11.237 0.493-2.882 0.658-5.826 1.389-8.669 0.575-2.237 1.535-4.351 2.812-6.273 2.621-3.953 6.547-7.04 10.955-8.764 4.047-1.583 8.354-1.915 12.518-1.237" fill="#fcba5e"/>
</g>
<g transform="translate(124.58 262.33)">
<path d="m0 0h-0.7c-1.196 3.501-4.324 6.163-8.249 6.498-4.427 0.377-8.422-2.449-9.82-6.498h-0.681c1.436 4.417 5.679 7.54 10.501 7.159 4.277-0.34 7.719-3.295 8.949-7.159" fill="#fcba5e"/>
</g>
<g transform="translate(103.89 293.51)">
<path d="m0 0c-1.587-2.282-1.315-5.055 0.641-7.035 1.755-1.778 4.578-2.966 6.285-0.487 1.479 2.149 1.396 5.265-0.384 7.209-1.683 1.836-4.709 2.3-6.491 0.38-0.288-0.312 0.178-0.78 0.468-0.467 1.584 1.707 4.243 1.168 5.659-0.493 1.419-1.665 1.457-4.196 0.345-6.035-1.493-2.469-4.15-1.067-5.651 0.61-1.581 1.765-1.634 4.069-0.302 5.985 0.243 0.349-0.329 0.68-0.57 0.333" fill="#fcba5e"/>
</g>
<g transform="translate(144.52 273.64)">
<path d="m0 0v-0.691c-7.211-1.22-14.722 2.151-18.679 8.349-2.182 3.42-3.252 7.742-2.266 11.737 0.826 3.351 2.973 6.885 6.075 8.557 0.374 0.202 0.709-0.368 0.335-0.571-3.424-1.843-5.716-6.099-6.062-9.893-0.709-7.733 5.223-14.749 12.342-16.99 2.704-0.852 5.536-0.984 8.255-0.498" fill="#fcba5e"/>
</g>
<g transform="translate(144.52 284.36)">
<path d="m0 0v-3.975c-0.311 1.991-0.306 3.887-1.641 5.537-1.18 1.457-2.818 2.234-4.656 2.433-1.324 0.143-2.802 0.103-3.988 0.797-1.152 0.673-1.621 1.919-1.498 3.212 0.302 3.153 2.982 6.183 5.34 8.073 0.328 0.264 0.799-0.203 0.467-0.467-2.209-1.771-4.627-4.459-5.108-7.359-0.67-4.014 3.976-3.165 6.398-3.88 2.125-0.627 3.92-2.292 4.686-4.371" fill="#fcba5e"/>
</g>
<path d="m144.52 306h-49.771v1.619h49.771z" fill="#b56c00"/>
<path d="m144.52 300.5h-49.771v1.619h49.771z" fill="#b56c00"/>
<g transform="translate(94.747 298.11)">
<path d="m0 0s-6.885-2.202-6.885-10.9 6.885-10.899 6.885-10.899v3.413s-3.967 2.201-3.967 7.486 3.967 7.046 3.967 7.046z" fill="#b56c00"/>
</g>
<g transform="translate(144.52 298.11)">
<path d="m0 0s6.885-2.202 6.885-10.9-6.885-10.899-6.885-10.899v3.413s3.967 2.201 3.967 7.486-3.967 7.046-3.967 7.046z" fill="#b56c00"/>
</g>
<g transform="translate(242.81 205.5)">
<path d="m0 0c5.135 10.959 13.875 23.021 27.99 25.631 3.315 0.613 6.678-0.73 8.623-3.483 4.764-6.742 12.217-21.425 3.863-39.502-11.55-24.99-27.822-21.939-32.808-17.874-0.311 0.254-0.638 0.54-0.979 0.85-9.529 8.702-12.165 22.692-6.689 34.378" fill="#a7be56"/>
</g>
<g transform="translate(236.34 208.98)">
<path d="m0 0c-2.595 4.64-6.804 9.648-13.07 10.347-1.472 0.164-2.902-0.531-3.668-1.798-1.874-3.104-4.676-9.772-0.447-17.427 5.848-10.583 12.88-8.734 14.936-6.796 0.129 0.121 0.263 0.257 0.403 0.403 3.9 4.113 4.613 10.325 1.846 15.271" fill="#779b45"/>
</g>
<g transform="translate(290.09 193.43)">
<path d="m0 0c4.134 3.342 9.903 6.428 15.979 4.747 1.427-0.394 2.498-1.57 2.738-3.031 0.586-3.578 0.709-10.81-6.063-16.345-9.362-7.652-15.203-3.322-16.391-0.759-0.075 0.161-0.149 0.336-0.224 0.525-2.092 5.267-0.446 11.3 3.961 14.863" fill="#779b45"/>
</g>
<g transform="translate(223.8 139.08)">
<path d="m0 0c-5.169 1.238-11.705 1.541-16.467-2.59-1.118-0.971-1.578-2.493-1.166-3.915 1.01-3.482 4.01-10.062 12.505-12.145 11.744-2.879 15.153 3.544 15.123 6.369-2e-3 0.177-0.011 0.367-0.024 0.569-0.378 5.654-4.459 10.392-9.971 11.712" fill="#779b45"/>
</g>
<g transform="translate(223.54 210.34)">
<path d="m0 0c7.88-13.379 14.191-27.656 18.805-42.481 4.594-14.763 7.524-30.044 8.674-45.463 0.648-8.682 0.729-17.401 0.25-26.093-0.043-0.778 1.167-0.776 1.21 0 0.857 15.55-0.106 31.179-2.81 46.516-2.704 15.333-7.163 30.345-13.252 44.676-3.428 8.067-7.384 15.904-11.832 23.456-0.395 0.67-1.441 0.063-1.045-0.611" fill="#3f6130"/>
</g>
<g transform="translate(301.05 192.95)">
<path d="m0 0c-8.833-7.949-16.837-16.794-23.891-26.356-7.087-9.607-13.201-19.932-18.207-30.77-2.815-6.098-5.28-12.353-7.381-18.732-0.245-0.742 0.923-1.059 1.166-0.322 3.705 11.241 8.553 22.086 14.45 32.347 5.896 10.258 12.82 19.923 20.654 28.79 4.412 4.994 9.111 9.73 14.064 14.188 0.581 0.522-0.278 1.376-0.855 0.855" fill="#3f6130"/>
</g>
<g transform="translate(213.52 131.14)">
<path d="m0 0c12.804-1.706 24.819-8.504 32.653-18.812 2.181-2.871 4.015-5.989 5.488-9.279 0.318-0.709 1.361-0.095 1.045 0.612-5.417 12.095-15.838 21.458-28.238 26.015-3.541 1.301-7.21 2.176-10.948 2.674-0.77 0.102-0.762-1.108 0-1.21" fill="#3f6130"/>
</g>
<g transform="translate(233.69 174.78)">
<path d="m0 0c-5.733 6.385-14.139 12.779-24.253 11.656-2.376-0.263-4.383-1.864-5.139-4.132-1.851-5.552-3.898-17.047 5.479-27.602 12.963-14.593 23.382-9.186 25.932-5.403 0.159 0.236 0.323 0.496 0.49 0.777 4.683 7.86 3.603 17.895-2.509 24.704" fill="#a7be56"/>
</g>
<g transform="translate(214.44 175.78)">
<path d="m0 0c2.722-1.92 4.704-4.954 6.435-7.738 2.011-3.237 3.662-6.641 5.214-10.116 3.277-7.333 6.768-14.892 13.073-20.143 3.198-2.664 6.945-4.527 11.077-5.146 0.948-0.141 1.011 1.349 0.069 1.49-7.913 1.182-13.827 7.366-17.709 13.966-3.983 6.774-6.412 14.312-10.612 20.974-1.828 2.9-3.896 5.961-6.735 7.964-0.787 0.555-1.594-0.699-0.812-1.251" fill="#3f6130"/>
</g>
<g transform="translate(262.59 156.69)">
<path d="m0 0c4.635 7.221 11.908 14.88 22.072 15.393 2.387 0.12 4.624-1.139 5.734-3.256 2.716-5.184 6.58-16.202-0.985-28.123-10.458-16.482-21.608-12.815-24.73-9.491-0.195 0.208-0.4 0.44-0.61 0.69-5.881 7.008-6.423 17.087-1.481 24.787" fill="#a7be56"/>
</g>
<g transform="translate(281.43 160.76)">
<path d="m0 0c-2.38-2.331-3.85-5.644-5.112-8.669-1.467-3.518-2.551-7.142-3.527-10.82-2.059-7.764-4.293-15.785-9.674-21.979-2.731-3.141-6.13-5.582-10.11-6.853-0.913-0.292-1.214 1.169-0.307 1.459 7.622 2.435 12.468 9.486 15.242 16.624 2.846 7.324 4.036 15.154 7.114 22.403 1.34 3.154 2.89 6.508 5.372 8.939 0.688 0.674 1.686-0.434 1.002-1.104" fill="#3f6130"/>
</g>
<g transform="translate(268.9 219.96)">
<path d="m0 0c-5.571-11.935-9.317-24.675-12.013-37.544-2.802-13.391-4.474-27.029-5.164-40.689-0.37-7.333-0.445-14.682-0.177-22.019 0.029-0.776 1.239-0.78 1.21 0-0.478 13.095 0.109 26.233 1.592 39.25 1.544 13.548 4.072 27.033 7.986 40.105 2.074 6.923 4.552 13.734 7.611 20.287 0.327 0.701-0.716 1.316-1.045 0.61" fill="#3f6130"/>
</g>
<g transform="translate(211.38 167.34)">
<path d="m0 0c4.146-0.808 8.22-1.921 12.201-3.335 0.551-0.196 0.789 0.681 0.241 0.875-3.981 1.414-8.054 2.527-12.201 3.335-0.571 0.111-0.815-0.764-0.241-0.875" fill="#3f6130"/>
</g>
<g transform="translate(228.78 172.03)">
<path d="m0 0c-0.822-4.232-1.645-8.465-2.467-12.696-0.111-0.572 0.763-0.816 0.875-0.242 0.822 4.232 1.645 8.464 2.467 12.697 0.111 0.57-0.763 0.814-0.875 0.241" fill="#3f6130"/>
</g>
<g transform="translate(217.42 155.07)">
<path d="m0 0c3.998-0.69 7.942-1.636 11.818-2.835 0.559-0.173 0.798 0.703 0.241 0.875-3.876 1.199-7.82 2.146-11.818 2.835-0.571 0.099-0.816-0.776-0.241-0.875" fill="#3f6130"/>
</g>
<g transform="translate(229.36 210.37)">
<path d="m0 0c-0.519-2.195-1.134-4.362-1.846-6.503-0.185-0.556 0.692-0.794 0.875-0.241 0.712 2.14 1.327 4.307 1.846 6.503 0.134 0.567-0.741 0.809-0.875 0.241" fill="#3f6130"/>
</g>
<g transform="translate(221.69 203.11)">
<path d="m0 0c2.594-1.007 5.112-2.179 7.556-3.509 0.513-0.279 0.972 0.504 0.458 0.783-2.513 1.368-5.106 2.567-7.773 3.601-0.545 0.211-0.781-0.666-0.241-0.875" fill="#3f6130"/>
</g>
<g transform="translate(295.9 193.55)">
<path d="m0 0c0.043-2.025-0.107-4.029-0.468-6.023-0.102-0.572 0.772-0.817 0.875-0.242 0.374 2.073 0.545 4.16 0.501 6.265-0.012 0.583-0.92 0.585-0.908 0" fill="#3f6130"/>
</g>
<g transform="translate(301.4 186.19)">
<path d="m0 0-7.84-0.917c-0.573-0.066-0.58-0.975 0-0.907 2.613 0.305 5.227 0.611 7.84 0.916 0.572 0.067 0.579 0.975 0 0.908" fill="#3f6130"/>
</g>
<g transform="translate(289.69 187.6)">
<path d="m0 0c0.151-1.99 0.106-3.969-0.136-5.95-0.07-0.578 0.838-0.573 0.908 0 0.243 1.981 0.287 3.96 0.135 5.95-0.044 0.578-0.952 0.583-0.907 0" fill="#3f6130"/>
</g>
<g transform="translate(216.03 136.02)">
<path d="m0 0c1.709-1.866 3.156-3.922 4.344-6.156 0.275-0.516 1.058-0.058 0.784 0.458-1.224 2.301-2.727 4.419-4.486 6.34-0.395 0.431-1.036-0.212-0.642-0.642" fill="#3f6130"/>
</g>
<g transform="translate(219.58 126.31)">
<path d="m0 0c2.32 0.454 4.64 0.908 6.96 1.362 0.573 0.113 0.331 0.988-0.241 0.875-2.32-0.454-4.64-0.908-6.96-1.362-0.573-0.111-0.33-0.986 0.241-0.875" fill="#3f6130"/>
</g>
<g transform="translate(226.58 133.39)">
<path d="m0 0c0.997-2.302 1.994-4.604 2.991-6.905 0.232-0.534 1.013-0.074 0.783 0.458-0.997 2.301-1.993 4.603-2.99 6.905-0.232 0.535-1.014 0.073-0.784-0.458" fill="#3f6130"/>
</g>
<g transform="translate(274.74 164.16)">
<path d="m0 0c0.485-3.401 0.972-6.803 1.457-10.204 0.083-0.576 0.957-0.331 0.875 0.241-0.485 3.401-0.971 6.803-1.457 10.204-0.082 0.576-0.957 0.331-0.875-0.241" fill="#3f6130"/>
</g>
<g transform="translate(286.49 152.34)">
<path d="m0 0c-3.988-0.983-7.998-1.871-12.028-2.665-0.574-0.112-0.33-0.987 0.241-0.875 4.03 0.793 8.04 1.682 12.028 2.665 0.568 0.14 0.327 1.015-0.241 0.875" fill="#3f6130"/>
</g>
<g transform="translate(266.42 153.74)">
<path d="m0 0c2.051-4.015 3.718-8.2 4.994-12.524 0.165-0.559 1.041-0.321 0.875 0.241-1.298 4.398-3 8.658-5.086 12.741-0.265 0.521-1.049 0.063-0.783-0.458" fill="#3f6130"/>
</g>
<g transform="translate(281.65 140.17)">
<path d="m0 0c-3.686-0.932-7.37-1.864-11.056-2.797-0.565-0.142-0.326-1.018 0.242-0.875 3.685 0.933 7.37 1.865 11.055 2.797 0.567 0.144 0.326 1.019-0.241 0.875" fill="#3f6130"/>
</g>
<g transform="translate(260.46 218.97)">
<path d="m0 0c1.669-3.104 3.063-6.334 4.172-9.679 0.183-0.551 1.059-0.315 0.875 0.241-1.134 3.418-2.558 6.724-4.263 9.896-0.277 0.515-1.06 0.057-0.784-0.458" fill="#3f6130"/>
</g>
<g transform="translate(278.05 208.75)">
<path d="m0 0c-4.903-1.811-9.807-3.621-14.711-5.431-0.543-0.201-0.308-1.078 0.242-0.876l14.71 5.432c0.543 0.2 0.309 1.078-0.241 0.875" fill="#3f6130"/>
</g>
<g transform="translate(252.04 202.06)">
<path d="m0 0c2.536-4.15 4.733-8.493 6.56-13.002 0.215-0.534 1.094-0.301 0.875 0.241-1.856 4.582-4.073 9-6.651 13.219-0.305 0.498-1.09 0.042-0.784-0.458" fill="#3f6130"/>
</g>
<g transform="translate(273.01 190.6)">
<path d="m0 0c-5.198-2.253-10.396-4.507-15.595-6.761-0.534-0.231-0.073-1.013 0.458-0.783 5.199 2.254 10.397 4.507 15.595 6.761 0.534 0.231 0.072 1.013-0.458 0.783" fill="#3f6130"/>
</g>
<g transform="translate(279.08 100.79)">
<path d="m0 0-10.265-45.881c-0.554-2.478-2.754-4.24-5.294-4.24h-23.215c-2.54 0-4.74 1.762-5.294 4.24l-10.264 45.881z" fill="#f97a68"/>
</g>
<g transform="translate(273.67 100.79)">
<path d="m0 0c-1.157-2.829-2.954-5.384-5.167-7.523-6.543-6.322-15.833-8.254-24.673-7.554-5.166 0.409-10.107 2.109-15.252 2.558-0.346 0.031-0.693 0.053-1.044 0.063l-0.138 0.614c5.073-0.184 9.958-1.943 14.993-2.495 4.973-0.548 10.081-0.351 14.899 1.066 6.789 1.995 12.967 6.751 15.728 13.271z" fill="#c14451"/>
</g>
<g transform="translate(260.78 100.79)">
<path d="m0 0c-0.129-1.021-0.462-2.026-0.981-2.941-2.945-5.195-10.073-6.991-15.606-6.14-5.416 0.833-10.149 4.297-12.738 9.081h0.689c3.173-5.574 9.251-9.017 15.743-8.661 3.54 0.194 7.278 1.476 9.834 4.01 1.263 1.248 2.167 2.92 2.441 4.651z" fill="#c14451"/>
</g>
<g transform="translate(276.33 88.526)">
<path d="m0 0-0.16-0.717v-2e-3c-1.271-0.582-2.479-1.302-3.605-2.142-5.172-3.866-8.257-10.067-7.72-16.551 0.341-4.103 2.005-8.054 4.642-11.183l-0.165-0.74c-1.029 1.164-1.92 2.448-2.661 3.823-3.144 5.838-3.359 12.96-0.07 18.781 2.196 3.882 5.677 6.975 9.739 8.731" fill="#c14451"/>
</g>
<g transform="translate(266.35 51.468)">
<path d="m0 0c-0.181-0.11-0.365-0.211-0.559-0.302h-2e-3c-0.289 2.024-0.776 4.019-1.45 5.959-2.83 8.124-8.873 14.935-16.808 18.345-5.519 2.37-11.7 3.112-17.614 2.182l-0.132 0.589c1.998 0.32 4.027 0.45 6.06 0.39 9.017-0.271 17.687-4.261 23.435-11.265 3.734-4.549 6.195-10.102 7.07-15.898" fill="#c14451"/>
</g>
<g transform="translate(251.72 50.667)">
<path d="m0 0h-0.604c1.197 5.416-2.193 10.403-6.588 13.319-3.58 2.374-8.02 3.755-12.341 3.533l-0.13 0.584c1.8 0.104 3.622-0.063 5.407-0.464 5.92-1.33 12.031-5.288 13.978-11.301 0.586-1.81 0.668-3.795 0.278-5.671" fill="#c14451"/>
</g>
<g transform="translate(378.76 374.57)">
<path d="m0 0s13.994-7.229 10.304-26.705c0 0-13.367 18.202-31.279 8.138 0 0 8.725 18.932 20.975 18.567" fill="#3f6130"/>
</g>
<g transform="translate(373.21 379.54)">
<path d="m0 0c-7.787 2.167-14.616-0.648-14.616-0.648s-6.047 7.024-17.444 1.139c-2.062-1.066-3.272-3.43-3.872-6.588l5.049-3.562-5.452 0.212c-5.925-24.889 7.466-41.545 7.466-41.545 8.867 19.245 15.807 29.469 25.73 35.324l-4.133 4.163 8.683-1.535c0.23 0.109 0.456 0.212 0.676 0.31 8.29 3.64 12.215-2.211 12.32-2.368-0.097 0.281-4.338 12.291-14.407 15.098" fill="#779b45"/>
</g>
<g transform="translate(358.45 379.57)">
<path d="m0 0c-7.9-8.936-12.961-20.208-14.488-32.031-0.444-3.436-0.574-6.904-0.405-10.364 0.02-0.384 0.62-0.386 0.601 0-0.579 11.831 2.503 23.731 8.688 33.83 1.767 2.885 3.787 5.606 6.028 8.141 0.255 0.288-0.168 0.714-0.424 0.424" fill="#3f6130"/>
</g>
<g transform="translate(350.9 367.8)">
<path d="m0 0c2.407-2.487 4.914-4.873 7.518-7.155 0.289-0.254 0.715 0.169 0.424 0.424-2.603 2.282-5.11 4.668-7.518 7.155-0.269 0.278-0.693-0.146-0.424-0.424" fill="#3f6130"/>
</g>
<g transform="translate(347.57 362.24)">
<path d="m0 0c-2.679-2.068-5.357-4.136-8.037-6.204-0.301-0.232-2e-3 -0.754 0.304-0.518l8.036 6.204c0.301 0.232 3e-3 0.754-0.303 0.518" fill="#3f6130"/>
</g>
<g transform="translate(354.19 374.4)">
<path d="m0 0c-2.403-0.024-4.808-0.048-7.211-0.072-0.386-4e-3 -0.387-0.604 0-0.6 2.403 0.024 4.808 0.048 7.211 0.072 0.386 4e-3 0.387 0.604 0 0.6" fill="#3f6130"/>
</g>
<g transform="translate(391.81 402.01)">
<path d="m0 0s-12.833-9.134-6.427-27.893c0 0 10.66 19.908 29.815 12.477 0 0-11.313 17.508-23.388 15.416" fill="#3f6130"/>
</g>
<g transform="translate(433.9 403.5)">
<path d="m0 0-5.366-0.98 4.493 4.24c-1.038 3.042-2.572 5.21-4.764 5.975-12.114 4.214-17.107-3.593-17.107-3.593s-7.159 1.823-14.562-1.426c-9.57-4.2-12.072-16.69-12.128-16.982 0.081 0.172 3.142 6.517 11.863 4.085 0.231-0.065 0.469-0.134 0.713-0.209 2.381-0.79 4.927-1.966 4.89-1.966 6.344-2.621 11.858-6.926 17.71-13.742 1.692 0.561 4.048 1.157 6.07 0.985l-4.17-3.269c3.389-4.202 6.929-9.251 10.838-15.3 0 0 10.903 18.381 1.52 42.182" fill="#779b45"/>
</g>
<g transform="translate(410.81 409.38)">
<path d="m0 0c9.031-7.683 15.605-18.091 18.729-29.526 0.889-3.251 1.489-6.573 1.801-9.929 0.035-0.38 0.636-0.384 0.6 0-1.107 11.888-5.863 23.313-13.454 32.524-2.195 2.662-4.623 5.12-7.251 7.355-0.293 0.249-0.719-0.174-0.425-0.424" fill="#3f6130"/>
</g>
<g transform="translate(419.84 399.59)">
<path d="m0 0c-2.018-2.782-4.146-5.478-6.385-8.085-0.25-0.292 0.173-0.718 0.425-0.424 2.272 2.646 4.431 5.383 6.478 8.206 0.227 0.313-0.293 0.613-0.518 0.303" fill="#3f6130"/>
</g>
<g transform="translate(424.16 393.68)">
<path d="m0 0 8.833-5.005c0.337-0.191 0.64 0.327 0.303 0.518l-8.833 5.005c-0.336 0.19-0.639-0.328-0.303-0.518" fill="#3f6130"/>
</g>
<g transform="translate(416.2 404.72)">
<path d="m0 0c2.383 0.316 4.767 0.632 7.149 0.948 0.377 0.05 0.382 0.651 0 0.6-2.382-0.316-4.766-0.632-7.149-0.948-0.377-0.05-0.382-0.651 0-0.6" fill="#3f6130"/>
</g>
<g transform="translate(390.76 443.39)">
<path d="m0 0c-4.928-6.55-8.724-13.913-10.431-21.969-1.601-7.559-1.467-15.414-0.547-23.053 2.091-17.333 8.65-34.065 8.184-51.696-0.234-8.857-2.291-17.733-7.414-25.083-0.664-0.953 0.895-1.853 1.554-0.909 9.314 13.363 8.645 30.702 5.766 46.002-3.152 16.761-8.882 33.692-6.395 50.953 1.322 9.175 5.295 17.479 10.838 24.846 0.696 0.927-0.866 1.825-1.555 0.909" fill="#3f6130"/>
</g>
<g transform="translate(381.53 391.6)">
<path d="m0 0s-2.693-7.316-12.261-3.667c-9.566 3.649-18.746 16.206-18.746 16.206s13.914 4.134 21.936 0c8.021-4.134 9.071-12.539 9.071-12.539" fill="#779b45"/>
</g>
<g transform="translate(357.62 400.61)">
<path d="m0 0c8.489-1.227 16.588-4.423 23.623-9.329 0.317-0.221 0.618 0.299 0.303 0.518-7.072 4.932-15.233 8.157-23.767 9.39-0.377 0.054-0.54-0.524-0.159-0.579" fill="#3f6130"/>
</g>
<g transform="translate(364.04 402.2)">
<path d="m0 0c0.602-1.061 1.203-2.122 1.804-3.183 0.19-0.336 0.709-0.034 0.518 0.303-0.601 1.061-1.203 2.122-1.804 3.183-0.191 0.336-0.709 0.034-0.518-0.303" fill="#3f6130"/>
</g>
<g transform="translate(366.68 393.82)">
<path d="m0 0c1.776 0.963 3.552 1.926 5.328 2.889 0.34 0.184 0.037 0.702-0.303 0.518-1.776-0.963-3.551-1.926-5.328-2.889-0.34-0.184-0.037-0.703 0.303-0.518" fill="#3f6130"/>
</g>
<g transform="translate(373.38 400.99)">
<path d="m0 0c0.927-2.193 1.854-4.387 2.782-6.581 0.15-0.354 0.667-0.048 0.518 0.304-0.927 2.193-1.855 4.386-2.782 6.58-0.15 0.354-0.667 0.049-0.518-0.303" fill="#3f6130"/>
</g>
<g transform="translate(381.11 419.22)">
<path d="m 0,0 c 0,0 1.458,-7.658 11.494,-5.626 10.035,2.033 21.149,12.915 21.149,12.915 0,0 -13.049,6.358 -21.64,3.594 C 2.413,8.12 0,0 0,0" fill="#779b45"/>
</g>
<g transform="translate(406.14 424.79)">
<path d="m0 0c-8.653 0.182-17.245-1.672-25.06-5.391-0.348-0.166-0.044-0.683 0.303-0.518 7.718 3.673 16.212 5.488 24.757 5.309 0.386-8e-3 0.386 0.592 0 0.6" fill="#3f6130"/>
</g>
<g transform="translate(399.66 427.22)">
<path d="m0 0c-0.767-0.948-1.534-1.896-2.301-2.845-0.241-0.297 0.181-0.724 0.424-0.424 0.768 0.948 1.534 1.896 2.302 2.845 0.24 0.297-0.182 0.724-0.425 0.424" fill="#3f6130"/>
</g>
<g transform="translate(396.53 419.43)">
<path d="m0 0c-1.595 1.241-3.188 2.482-4.783 3.723-0.301 0.234-0.729-0.187-0.424-0.425 1.594-1.24 3.188-2.482 4.782-3.722 0.302-0.235 0.729 0.187 0.425 0.424" fill="#3f6130"/>
</g>
<g transform="translate(390.2 427.5)">
<path d="m0 0c-1.274-2.012-2.549-4.024-3.823-6.036-0.207-0.327 0.312-0.628 0.518-0.302 1.275 2.011 2.549 4.024 3.824 6.035 0.207 0.327-0.313 0.629-0.519 0.303" fill="#3f6130"/>
</g>
<g transform="translate(389.36 349.09)">
<path d="m0 0s4.187-6.576 12.76-0.977c8.572 5.6 14.873 19.821 14.873 19.821s-14.475 1.081-21.434-4.663c-6.96-5.744-6.199-14.181-6.199-14.181" fill="#779b45"/>
</g>
<g transform="translate(410.59 363.53)">
<path d="m0 0c-8.104-3.027-15.414-7.915-21.296-14.259-0.263-0.283 0.161-0.708 0.424-0.425 5.809 6.267 13.025 11.114 21.031 14.105 0.359 0.134 0.203 0.715-0.159 0.579" fill="#3f6130"/>
</g>
<g transform="translate(403.62 363.34)">
<path d="m0 0c-0.362-1.165-0.725-2.33-1.087-3.494-0.114-0.37 0.464-0.527 0.579-0.159 0.362 1.164 0.724 2.329 1.086 3.493 0.115 0.37-0.464 0.528-0.578 0.16" fill="#3f6130"/>
</g>
<g transform="translate(403.57 354.99)">
<path d="m0 0c-1.939 0.563-3.88 1.127-5.82 1.69-0.371 0.108-0.53-0.47-0.159-0.578 1.94-0.563 3.879-1.127 5.82-1.691 0.371-0.108 0.53 0.472 0.159 0.579" fill="#3f6130"/>
</g>
<g transform="translate(394.75 360.17)">
<path d="m0 0c-0.44-2.34-0.88-4.681-1.32-7.021-0.072-0.378 0.507-0.54 0.578-0.16 0.44 2.34 0.881 4.681 1.32 7.021 0.071 0.378-0.507 0.539-0.578 0.16" fill="#3f6130"/>
</g>
<g transform="translate(408.66 284.07)">
<path d="m0 0c0-0.622-0.018-1.228-0.052-1.818-0.097-1.718-0.338-3.29-0.696-4.73-0.328-1.33-0.758-2.546-1.27-3.656-2.297-5.004-6.242-7.896-10.11-9.566-0.237-0.104-0.476-0.202-0.714-0.296-5.378-2.126-10.404-1.978-10.404-1.978s-4.85-0.144-10.119 1.868c-0.235 0.088-0.469 0.182-0.704 0.28-3.881 1.616-7.881 4.444-10.261 9.384-0.552 1.148-1.018 2.408-1.372 3.798-0.367 1.426-0.617 2.988-0.726 4.698-0.042 0.65-0.064 1.322-0.064 2.016 0 0.394 9e-3 0.782 0.026 1.164 0.07 1.528 0.275 2.944 0.59 4.26 0.055 0.234 0.114 0.466 0.179 0.694 0.993 3.62 2.827 6.46 4.899 8.828 0.172 0.198 0.346 0.392 0.523 0.582 2.164 2.352 4.529 4.234 6.452 5.974 0.163 0.15 0.325 0.3 0.483 0.446 1.598 1.494 2.822 2.904 3.246 4.446 0.063 0.218 0.107 0.44 0.132 0.666 0.026 0.208 0.036 0.42 0.03 0.634-0.074 2.874-1.442 6.154-3.03 9.022-0.605 1.092-1.242 2.122-1.848 3.05-1.71 2.6-3.208 4.388-3.208 4.388h29.542s-1.416-1.69-3.062-4.174c-0.617-0.93-1.27-1.974-1.89-3.082-1.632-2.912-3.057-6.268-3.132-9.204-0.038-1.478 0.672-2.798 1.816-4.12 0.129-0.148 0.263-0.296 0.4-0.444 1.466-1.568 3.489-3.164 5.554-5.056 0.152-0.138 0.301-0.276 0.45-0.416 2.332-2.184 4.672-4.766 6.278-8.132 0.115-0.238 0.224-0.48 0.329-0.726 0.933-2.166 1.561-4.646 1.704-7.532 0.019-0.416 0.029-0.836 0.029-1.268" fill="#f8efd0"/>
</g>
<g transform="translate(406.92 292.87)">
<path d="m0 0c-1.435-3.144-3.469-6.004-6.24-8.122-3.025-2.312-6.876-3.672-10.702-3.25-3.514 0.386-6.85 2.206-8.806 5.19-1.19 1.814-1.878 3.892-2.92 5.784-1.053 1.91-2.534 3.53-4.378 4.7-1.635 1.034-3.883 1.794-6.018 1.844 0.171 0.198 0.345 0.392 0.522 0.582 1.206-0.06 2.412-0.326 3.502-0.75 3.737-1.45 6.155-4.354 7.798-7.91 0.912-1.974 1.763-4.01 3.33-5.572 1.445-1.444 3.304-2.444 5.277-2.952 4.288-1.104 8.807 0.27 12.229 2.958 2.732 2.146 4.706 5.058 6.078 8.224 0.114-0.238 0.224-0.48 0.328-0.726" fill="#c6b995"/>
</g>
<g transform="translate(400.32 301.73)">
<path d="m0 0c-0.872-1.406-2.16-2.554-3.644-3.338-2.8-1.48-6.094-1.566-9.162-1.102-5.09 0.77-10.799 3.272-12.677 8.284 0.163 0.15 0.325 0.3 0.483 0.446 1.656-4.754 6.86-7.166 11.632-8.032 3.066-0.554 6.446-0.594 9.29 0.854 1.496 0.762 2.78 1.896 3.628 3.304 0.152-0.138 0.301-0.276 0.45-0.416" fill="#c6b995"/>
</g>
<g transform="translate(376.34 279.12)">
<path d="m0 0c-0.042-0.38-0.643-0.382-0.601 0 0.411 3.74-1.365 7.602-4.603 9.582-2.519 1.538-5.628 1.746-8.357 0.796 0.055 0.234 0.115 0.466 0.179 0.694 2.8 0.86 5.944 0.582 8.48-0.972 3.404-2.086 5.334-6.15 4.902-10.1" fill="#c6b995"/>
</g>
<g transform="translate(396.53 264.3)">
<path d="m0 0c-0.237-0.104-0.476-0.202-0.714-0.296-6.408 3.398-14.164 3.368-20.523-0.11-0.235 0.088-0.469 0.182-0.704 0.28 6.753 3.876 15.135 3.95 21.941 0.126" fill="#c6b995"/>
</g>
<g transform="translate(394.48 294.22)">
<path d="m0 0c-2.278 0.377-5.108-0.037-6.153-2.413-1.095-2.488 0.903-4.408 3.215-4.882 2.295-0.471 4.966 0.343 5.802 2.733 0.74 2.118-0.728 4.206-2.864 4.562-0.378 0.063-0.54-0.515-0.16-0.579 1.808-0.301 3.109-2.005 2.446-3.823-0.753-2.062-3.089-2.719-5.065-2.315-2.042 0.418-3.95 2.142-2.68 4.355 1.058 1.841 3.405 2.097 5.299 1.783 0.378-0.062 0.541 0.516 0.16 0.579" fill="#c6b995"/>
</g>
<g transform="translate(394.31 307.2)">
<path d="m0 0c-2.016-1.356-4.616-1.766-7.07-1.326-3.32 0.592-6.116 2.474-8.68 4.59 0.062 0.218 0.106 0.44 0.132 0.666 2.296-1.924 4.764-3.67 7.69-4.45 2.536-0.678 5.376-0.45 7.528 0.964 0.129-0.148 0.262-0.296 0.4-0.444" fill="#c6b995"/>
</g>
<g transform="translate(397.12 324.05)">
<path d="m0 0c-0.618-0.931-1.27-1.975-1.891-3.083-3.042-0.522-6.478-0.841-10.338-0.841-3.413 0-6.466 0.241-9.196 0.66-0.605 1.09-1.241 2.12-1.848 3.049 3.109-0.643 6.765-1.051 11.044-1.051 4.737 0 8.794 0.501 12.229 1.266" fill="#c6b995"/>
</g>
<g transform="translate(408.66 284.07)">
<path d="m0 0c0-0.623-0.018-1.228-0.054-1.817-4.753-2.606-12.43-5.336-23.714-5.336-10.757 0-17.96 2.413-22.662 5.136-0.042 0.652-0.063 1.323-0.063 2.017 0 0.394 9e-3 0.782 0.026 1.163 9e-3 -7e-3 0.02-0.013 0.029-0.02 3.86-2.57 10.926-5.637 22.67-5.637 11.791 0 19.352 3.093 23.62 5.688 0.04 0.024 0.077 0.049 0.117 0.073 0.02-0.414 0.031-0.835 0.031-1.267" fill="#c6b995"/>
</g>
<g transform="translate(407.91 277.52)">
<path d="m0 0c-0.328-1.329-0.758-2.546-1.27-3.656-4.808-2.258-11.906-4.337-21.749-4.337-9.268 0-15.898 1.791-20.563 4.029-0.552 1.148-1.017 2.409-1.371 3.798 3.995-2.462 10.899-5.167 21.934-5.167 11.257 0 18.659 2.82 23.019 5.333" fill="#c6b995"/>
</g>
<g transform="translate(404.57 294.88)">
<path d="m0 0-1.266 1.799c0.058 0.041 5.863 4.182 6.19 8.396 0.109 1.397-0.414 2.634-1.6 3.781-4.407 4.269-13.384-2.987-13.473-3.061l-1.394 1.703c0.43 0.352 10.597 8.556 16.398 2.939 1.663-1.611 2.424-3.474 2.262-5.537-0.411-5.247-6.844-9.828-7.117-10.02" fill="#f8efd0"/>
</g>
<g transform="translate(414.76 160.57)">
<path d="m0 0s-16.223 2.741-21.021-13.931c-4.796-16.672-8.266-41.605-8.266-41.605h3.962s3.304 43.49 25.325 49.207z" fill="#3f6130"/>
</g>
<g transform="translate(360.2 173.92)">
<path d="m0 0c2.228 1.836 21.339 1.671 28.137-8.825s10.43-60.062 10.43-60.062h-3.967s-4.446 48.325-15.316 57.549-19.284 11.338-19.284 11.338" fill="#3f6130"/>
</g>
<g transform="translate(396.75 128.43)">
<path d="m0 0s-2.876-5.544 4.31-10.679 17.37-8.636 19.304-16.07c0 0 1.954 7.672-2.843 14.799-4.796 7.128-20.771 11.95-20.771 11.95" fill="#779b45"/>
</g>
<g transform="translate(395.32 131.44)">
<path d="m0 0c1.376-4.402 5.104-7.514 8.993-9.678 4.334-2.412 9.485-4.63 11.507-9.532 0.146-0.352 0.726-0.198 0.578 0.159-1.796 4.353-5.942 6.749-9.902 8.872-4.416 2.367-9.009 5.259-10.598 10.339-0.115 0.367-0.694 0.21-0.578-0.16" fill="#3f6130"/>
</g>
<g transform="translate(410.42 189.13)">
<path d="m0 0c-2.228 2.338-17 5.727-23.798-7.637-6.799-13.362-10.431-76.467-10.431-76.467h3.967s4.447 61.524 15.317 73.268 14.945 10.836 14.945 10.836" fill="#3f6130"/>
</g>
<g transform="translate(376.46 208.63)">
<path d="m0 0c1.331-5.665 7.065-31.21 6.45-48.061l3.475 2.835s-1.406 24.046-8.135 45.713c-0.12 0.388-0.481 0.652-0.887 0.652-0.598 0-1.04-0.557-0.903-1.139" fill="#3f6130"/>
</g>
<g transform="translate(382.91 184.54)">
<path d="m 0,0 c 0,0 -5.135,-3.555 -11.139,2.924 -6.003,6.478 -10.763,16.138 -18.382,17.117 0,0 7.364,2.909 15.041,-0.948 C -6.804,15.235 0,0 0,0" fill="#779b45"/>
</g>
<g transform="translate(366.7 200.6)">
<path d="m0 0c6.528-4.247 9.586-12.074 16.161-16.278 0.326-0.209 0.628 0.31 0.303 0.517-6.568 4.199-9.627 12.029-16.161 16.28-0.324 0.21-0.625-0.309-0.303-0.519" fill="#3f6130"/>
</g>
<g transform="translate(430.27 131.48)">
<path d="m0 0c0.055-0.015 0.107-0.031 0.161-0.048 1.831-0.617 2.371-3.522 1.012-5.158-1.002-1.204-2.4-2.13-3.752-0.503-2.514 3.027 0.832 6.153 2.579 5.709m7.707 12.669c0.385 0.787 0.949 1.113 1.505 1.211 0.962 0.17 1.924-0.335 2.539-1.264 0.923-1.391 2.189-3.972 0.224-5.527-2.794-2.21-5.298 3.482-4.268 5.58m-28.615 7.397c-2.813-1.115-7.693-4.043-8.141-1.786-0.604 3.032 6.583 5.838 7.79 4.908 1.223 0.468 3.164-2.004 0.351-3.122m11.116-4.717c0.771-2.552-10.516-7.606-20.113-9.838 0.429-0.675 3.806-4.755 10.574-8.542 1.825-1.022 4.283-2.236 5.955-3.071 1.223 3.371 5.678 10.368 8.492 7.841 1.402-1.258-2.526-5.553-6.996-8.322 2.43-1.42 9.617-6.127 11.506-7.527 0.994 3.071 4.615 8.786 7.349 8.063 2.661-0.705-3.893-6.124-6.488-8.667 2.719-2.402 5.746-5.916 7.168-7.807 1.6 2.974 4.142 7.11 5.357 6.38 1.827-1.097-2.981-5.798-4.216-7.68 1.293-2.092 2.02-4.069 2.02-4.069s3.65 5.158 5.635 12.786c-1.348 1.148-3.447 3.12-2.663 3.665 0.808 0.562 2.39-0.547 3.221-1.218 0.558 2.853 0.843 5.981 0.619 9.261-1.607-0.539-3.405 0.165-3.678 0.97-0.444 1.317 0.593 2.012 3.555 0.951-0.048 0.283-0.367 1.912-0.423 2.197-2.43 12.15-7.41 20.027-11.991 24.957-2.652-1.735-4.437-1.083-5.865-0.126-1.308 0.875-1.247 2.454 4.149 2.454-2.681 1.96-8.011 5.008-8.011 5.008-9.153 2.843-11.477-5.344-11.477-5.344-13.53 0.433-18.707-11.41-14.455-20.918 4.168 3.785 18.821 15.067 20.776 8.596" fill="#3f6130"/>
</g>
<g transform="translate(414.03 158.86)">
<path d="m0 0c9.612-7.433 18.755-16.525 24.392-28.914 1.546-3.4 2.785-6.995 3.663-10.742 0.094-0.407 0.609-0.234 0.514 0.175-3.182 13.586-10.999 24.56-19.955 32.992-2.683 2.525-5.486 4.847-8.344 7.058-0.292 0.226-0.56-0.344-0.27-0.569" fill="#16221d"/>
</g>
<g transform="translate(433.79 150.25)">
<path d="m0 0c-2.571 0.356-5.109-0.197-7.436-1.589-0.308-0.184-0.039-0.752 0.269-0.568 2.243 1.342 4.692 1.842 7.167 1.499 0.34-0.047 0.337 0.612 0 0.658" fill="#16221d"/>
</g>
<g transform="translate(429.83 144.35)">
<path d="m0 0c-2.508-0.517-4.892-1.575-7.096-3.14-0.297-0.211-0.028-0.78 0.27-0.568 2.167 1.538 4.504 2.565 6.968 3.073 0.337 0.07 0.195 0.704-0.142 0.635" fill="#16221d"/>
</g>
<g transform="translate(420.71 153.99)">
<path d="m0 0c0.971 2.496 2.081 4.896 3.329 7.197 0.192 0.353-0.269 0.683-0.46 0.332-1.248-2.3-2.358-4.7-3.33-7.196-0.147-0.381 0.312-0.715 0.461-0.333" fill="#16221d"/>
</g>
<g transform="translate(417.96 156.4)">
<path d="m0 0c-1.645-0.101-3.232-0.517-4.766-1.264-0.315-0.154-0.177-0.791 0.142-0.634 1.49 0.725 3.022 1.141 4.624 1.24 0.342 0.02 0.344 0.679 0 0.658" fill="#16221d"/>
</g>
<g transform="translate(434.8 137.14)">
<path d="m0 0c-2.436-0.445-4.813-1.192-7.125-2.238-0.319-0.145-0.182-0.782 0.142-0.635 2.311 1.046 4.689 1.793 7.125 2.238 0.337 0.062 0.194 0.697-0.142 0.635" fill="#16221d"/>
</g>
<g transform="translate(437.25 133.01)">
<path d="M 0,0 C 1.782,-0.22 3.565,-0.438 5.348,-0.658 5.688,-0.7 5.687,-0.041 5.348,0 3.565,0.22 1.782,0.439 0,0.658 -0.341,0.7 -0.339,0.042 0,0" fill="#16221d"/>
</g>
<g transform="translate(352.46 137.26)">
<path d="m0 0c-1.507-1.854-3.445-1.153-4.914-0.108-1.994 1.419-1.723 4.421 0.55 5.34 0.067 0.026 0.133 0.05 0.201 0.075 2.189 0.731 6.964-1.86 4.163-5.307m-20.651 10.462c-2.765 1.239-1.509 4.036-0.522 5.583 0.658 1.032 1.825 1.696 3.092 1.683 0.731-7e-3 1.508-0.243 2.118-0.969 1.637-1.937-0.76-8.058-4.688-6.297m55.546 7.699c4.095 10.235-4.923 20.191-22.317 17.544 0 0-4.198 7.835-15.592 3.485 0 0-6.432-3.928-9.604-6.334 6.962 0.882 7.272-0.692 5.714-1.784-1.704-1.193-3.911-2.138-7.587-0.832-5.189-5.695-10.463-14.413-11.82-27.001-0.03-0.296-0.203-1.982-0.224-2.273 3.667 1.548 5.106 1.02 4.726-0.373-0.233-0.854-2.45-1.854-4.603-1.575 0.192-3.328 1.016-6.419 2.155-9.191 0.974 0.809 2.853 2.18 3.978 1.748 1.092-0.419-1.328-2.741-2.901-4.114 3.679-7.328 9.143-11.907 9.143-11.907s0.65 2.102 2.011 4.413c-1.87 1.685-8.761 5.618-6.564 7.017 1.461 0.931 5.346-2.803 7.846-5.527 1.557 2.131 4.95 6.151 8.106 9.006-3.72 2.128-12.97 6.494-9.64 7.637 3.422 1.171 8.93-3.971 10.663-6.891 2.232 1.714 10.818 7.611 13.745 9.435-6.173 2.046-11.87 5.715-10.246 7.206 3.262 2.995 10.035-3.298 12.105-6.479 2.035 1.11 5.03 2.731 7.236 4.054 8.177 4.906 11.937 9.552 12.392 10.299-12.711 0.672-28.013 3.897-27.391 6.584 1.574 6.813 22.737-1.031 28.669-4.147" fill="#779b45"/>
</g>
<g transform="translate(365.25 172.7)">
<path d="m0 0c-11.315-9.03-21.781-19.647-27.24-32.999-1.499-3.665-2.571-7.475-3.155-11.378-0.063-0.423-0.751-0.334-0.688 0.092 2.117 14.153 10.597 26.441 20.918 36.365 3.093 2.973 6.37 5.761 9.734 8.446 0.344 0.275 0.773-0.254 0.431-0.526" fill="#3f6130"/>
</g>
<g transform="translate(341.01 160.82)">
<path d="m0 0c3.265 0.778 6.622 0.637 9.827-0.379 0.425-0.135 0.16-0.748-0.264-0.614-3.09 0.979-6.324 1.081-9.466 0.333-0.433-0.104-0.526 0.558-0.097 0.66" fill="#3f6130"/>
</g>
<g transform="translate(346.99 155.55)">
<path d="m0 0c3.312-0.108 6.542-0.78 9.615-1.99 0.414-0.163 0.152-0.779-0.264-0.614-3.022 1.189-6.187 1.837-9.441 1.944-0.446 0.014-0.354 0.675 0.09 0.66" fill="#3f6130"/>
</g>
<g transform="translate(357.34 166.71)">
<path d="m0 0c-1.618 2.346-3.402 4.572-5.351 6.677-0.298 0.322 0.249 0.729 0.546 0.408 1.948-2.105 3.732-4.331 5.351-6.677 0.246-0.357-0.298-0.767-0.546-0.408" fill="#3f6130"/>
</g>
<g transform="translate(360.53 169.59)">
<path d="m0 0c2.138 0.168 4.246 0.01 6.334-0.489 0.43-0.103 0.346-0.764-0.09-0.66-2.029 0.485-4.066 0.652-6.148 0.489-0.444-0.035-0.542 0.625-0.096 0.66" fill="#3f6130"/>
</g>
<g transform="translate(341.63 147.51)">
<path d="m0 0c3.207-0.049 6.385-0.409 9.521-1.081 0.433-0.094 0.348-0.755-0.09-0.66-3.136 0.672-6.314 1.032-9.521 1.081-0.446 7e-3 -0.353 0.667 0.09 0.66" fill="#3f6130"/>
</g>
<g transform="translate(339.07 142.96)">
<path d="m0 0c-2.268-0.512-4.535-1.023-6.803-1.534-0.434-0.099-0.527 0.563-0.096 0.66 2.267 0.512 4.535 1.023 6.803 1.534 0.434 0.099 0.528-0.563 0.096-0.66" fill="#3f6130"/>
</g>
<g transform="translate(429.09 166.81)">
<path d="m0 0c0.072-5e-3 0.142-0.013 0.214-0.02 2.432-0.305 3.464-3.138 1.9-5.021-1.152-1.386-2.846-2.561-4.778-1.155-3.591 2.615 0.36 6.342 2.664 6.196m8.471 14.095c0.404 0.858 1.094 1.284 1.799 1.479 1.22 0.337 2.519-6e-3 3.419-0.835 1.352-1.242 3.283-3.624 0.928-5.53-3.346-2.708-7.231 2.594-6.146 4.886m-37.745 2.51c-3.497-1.609-9.448-5.402-10.288-3.205-1.128 2.95 7.811 7.018 9.475 6.289 1.523 0.683 4.312-1.472 0.813-3.084m14.876-2.833c1.289-2.438-12.676-9.477-24.79-13.384 0.631-0.605 5.457-4.132 14.619-6.78 2.47-0.713 5.78-1.511 8.032-2.064 1.185 3.606 6.12 11.425 10.041 9.365 1.951-1.024-2.615-6.031-8.058-9.592 3.297-1.011 13.107-4.511 15.703-5.596 0.928 3.266 4.935 9.648 8.541 9.393 3.513-0.252-4.31-6.842-7.36-9.852 3.782-1.95 8.091-4.967 10.144-6.628 1.717 3.273 4.515 7.879 6.167 7.353 2.482-0.79-3.171-6.356-4.546-8.465 1.907-1.884 3.074-3.75 3.074-3.75s4.108 5.826 5.786 13.853c-1.871 0.924-4.806 2.548-3.858 3.232 0.977 0.706 3.144-0.137 4.293-0.67 0.39 2.971 0.394 6.171-0.272 9.437-2.011-0.821-4.41-0.423-4.853 0.342-0.725 1.25 0.531 2.129 4.472 1.572-0.095 0.276-0.694 1.862-0.8 2.14-4.537 11.82-11.869 18.895-18.343 23.07-3.218-2.205-5.594-1.856-7.547-1.14-1.787 0.657-1.89 2.257 5.065 3.189-3.681 1.513-10.906 3.662-10.906 3.662-12.128 1.284-14.178-7.365-14.178-7.365-17.491-1.9-23.657-13.834-17.076-22.678 4.935 4.532 23.382 17.538 26.65 11.356" fill="#779b45"/>
</g>
<g transform="translate(404.98 191.6)">
<path d="m0 0c13.251-5.829 26.089-13.41 34.787-24.917 2.388-3.158 4.4-6.565 5.965-10.189 0.169-0.393 0.812-0.13 0.643 0.265-5.674 13.138-17.02 22.843-29.541 29.79-3.75 2.081-7.632 3.937-11.573 5.669-0.402 0.178-0.681-0.442-0.281-0.618" fill="#3f6130"/>
</g>
<g transform="translate(431.46 186.33)">
<path d="m0 0c-3.354-0.085-6.563-1.082-9.401-2.885-0.376-0.239 0.037-0.764 0.413-0.526 2.736 1.738 5.835 2.666 9.064 2.748 0.445 0.011 0.365 0.674-0.076 0.663" fill="#3f6130"/>
</g>
<g transform="translate(427.03 179.7)">
<path d="m0 0c-3.174-0.953-6.124-2.431-8.784-4.388-0.36-0.263 0.053-0.791 0.412-0.525 2.616 1.924 5.51 3.361 8.628 4.299 0.428 0.128 0.169 0.742-0.256 0.614" fill="#3f6130"/>
</g>
<g transform="translate(414.16 187.84)">
<path d="M 0,0 C 0.964,2.682 2.117,5.291 3.461,7.824 3.667,8.213 3.033,8.466 2.829,8.08 1.485,5.547 0.332,2.938 -0.632,0.255 -0.778,-0.153 -0.147,-0.411 0,0" fill="#3f6130"/>
</g>
<g transform="translate(410.34 189.8)">
<path d="m0 0c-2.109-0.386-4.107-1.079-5.998-2.096-0.389-0.209-0.138-0.827 0.256-0.615 1.838 0.989 3.764 1.672 5.818 2.048 0.438 0.08 0.364 0.744-0.076 0.663" fill="#3f6130"/>
</g>
<g transform="translate(434.27 173.3)">
<path d="m0 0c-3.088-0.869-6.067-2.032-8.926-3.485-0.395-0.202-0.143-0.819 0.256-0.616 2.859 1.454 5.838 2.617 8.926 3.486 0.429 0.12 0.17 0.735-0.256 0.615" fill="#3f6130"/>
</g>
<g transform="translate(437.91 169.56)">
<path d="M 0,0 C 2.323,0.087 4.646,0.173 6.969,0.26 7.414,0.276 7.335,0.939 6.893,0.923 4.57,0.836 2.247,0.75 -0.076,0.663 -0.521,0.646 -0.441,-0.017 0,0" fill="#3f6130"/>
</g>
<g transform="translate(403.66 50.667)">
<path d="m0 0h-31.038c-5.26 0-8.564 5.669-5.976 10.248 5.069 8.965 11.108 21.613 9.466 28.58-2.728 11.574-9.994 17.89-9.994 17.89h44.045s-7.266-6.316-9.993-17.89c-1.643-6.967 4.396-19.615 9.465-28.58 2.588-4.579-0.715-10.248-5.975-10.248" fill="#ed5829"/>
</g>
<g transform="translate(393 68.956)">
<path d="m0 0c0.836-2.958-0.025-6.536-2.516-8.462-2.551-1.974-6.811-1.976-7.922 1.588-1.076 3.456 1.447 6.508 3.962 8.53 1.149 0.924 2.369 1.766 3.638 2.524 1.317-1.016 2.328-2.375 2.838-4.18m8.824 8.54c-0.065 0.192-0.132 0.384-0.194 0.576-2.234-0.414-4.43-1.042-6.55-1.874-1.687-0.662-3.342-1.45-4.92-2.364-8e-3 6e-3 -0.017 0.013-0.025 0.018-2.71 1.918-6.185 2.52-9.439 2.642-2.227 0.086-4.529-2e-3 -6.758-0.406-0.087-0.237-0.177-0.476-0.269-0.714 1.172 0.254 2.355 0.412 3.51 0.482 3.843 0.234 9-0.036 12.45-2.338-1.421-0.858-2.773-1.82-4.026-2.892-2.489-2.124-4.674-5.286-3.619-8.704 0.926-2.993 4.071-4 6.861-3.002 2.926 1.049 4.737 3.87 5.025 6.896 0.282 2.966-0.932 5.76-3.193 7.62 1.466 0.84 2.998 1.57 4.563 2.184 2.132 0.836 4.34 1.464 6.584 1.876" fill="#ae3713"/>
</g>
<g transform="translate(400.75 56.849)">
<path d="m0 0c-0.317-2.036-0.189-4.22 0.506-6.183h-0.624c-1.056 3.204-0.692 6.941 0.624 10.049 1.108 2.617 2.822 4.94 4.759 7.006 0.091-0.188 0.183-0.374 0.279-0.56-0.342-0.378-0.67-0.758-0.987-1.136-2.215-2.632-4.021-5.738-4.557-9.176" fill="#ae3713"/>
</g>
<g transform="translate(384.78 50.666)">
<path d="m0 0h-0.644c-1.184 2.925-3.698 5.423-6.486 6.931-2.556 1.382-5.481 2.33-8.346 2.811-0.889 0.151-1.91 0.187-2.9 0.05 0.072 0.152 0.15 0.307 0.236 0.456 0.046 0.082 0.094 0.164 0.14 0.248 0.143 0.013 0.284 0.021 0.427 0.023 1.802 0.034 3.603-0.433 5.321-0.924 1.559-0.447 3.088-0.996 4.548-1.7 2.866-1.38 5.473-3.435 6.988-6.281 0.279-0.519 0.519-1.059 0.716-1.614" fill="#ae3713"/>
</g>
<g transform="translate(392.06 97.688)">
<path d="m0 0c-0.466-0.155-0.937-0.292-1.41-0.407-2.362-0.576-5.822-0.195-6.496 2.674-0.572 2.431 2.228 4.185 4.37 3.582 2.368-0.668 3.578-3.254 3.546-5.548-2e-3 -0.101-4e-3 -0.2-0.01-0.301m14.628 9.696c-2.702-2.807-5.767-5.256-9.17-7.177-1.536-0.869-3.164-1.695-4.848-2.306 6e-3 0.319-6e-3 0.64-0.038 0.96-0.21 2.109-1.418 4.223-3.436 5.069-1.83 0.769-4.106 0.116-5.188-1.576-1.208-1.892-0.134-4.132 1.644-5.195 1.956-1.168 4.268-0.798 6.358-0.101-0.492-4.405-3.95-8.565-7.458-10.951-2.578-1.754-5.54-2.776-8.578-3.061-0.038-0.204-0.08-0.408-0.124-0.616 3.09 0.261 6.112 1.257 8.748 2.987 2.2 1.442 4.104 3.333 5.552 5.528 1.223 1.859 2.28 4.067 2.486 6.332 0.278 0.101 0.55 0.208 0.816 0.313 5.368 2.153 10.12 5.592 14.064 9.794z" fill="#ae3713"/>
</g>
<g transform="translate(394.2 89.774)">
<path d="m0 0c-0.726-2.816 0.576-5.973 3.05-7.496 1.048-0.647 2.238-0.954 3.43-0.958 0.05-0.2 0.102-0.4 0.156-0.603-0.8-0.013-1.606 0.099-2.384 0.351-4.689 1.518-6.378 7.298-3.738 11.292 1.948 2.947 4.974 4.311 8.242 4.966-0.102-0.208-0.202-0.418-0.3-0.632-0.882-0.196-1.748-0.456-2.592-0.805-2.654-1.095-5.128-3.25-5.864-6.115" fill="#ae3713"/>
</g>
<g transform="translate(374.27 95.214)">
<path d="m0 0c-0.084 0.206-0.172 0.41-0.26 0.612 1.4 1.622 2.204 3.742 2.1 6.026-0.098 2.148-0.982 4.076-2.362 5.532h0.796c1.204-1.428 1.986-3.224 2.146-5.216 0.214-2.636-0.738-5.118-2.42-6.954" fill="#ae3713"/>
</g>
</g>
</g>
</svg>
