<svg id="visual" viewBox="0 0 900 600" width="900" height="600" xmlns="http://www.w3.org/2000/svg" xmlns:xlink="http://www.w3.org/1999/xlink" version="1.1"><rect x="0" y="0" width="900" height="600" fill="#F0EBCE"></rect><path d="M0 471L21.5 470.7C43 470.3 86 469.7 128.8 464.5C171.7 459.3 214.3 449.7 257.2 437.5C300 425.3 343 410.7 385.8 417.3C428.7 424 471.3 452 514.2 456.7C557 461.3 600 442.7 642.8 418.7C685.7 394.7 728.3 365.3 771.2 377.5C814 389.7 857 443.3 878.5 470.2L900 497L900 601L878.5 601C857 601 814 601 771.2 601C728.3 601 685.7 601 642.8 601C600 601 557 601 514.2 601C471.3 601 428.7 601 385.8 601C343 601 300 601 257.2 601C214.3 601 171.7 601 128.8 601C86 601 43 601 21.5 601L0 601Z" fill="#4E6C50" stroke-linecap="round" stroke-linejoin="miter"></path></svg>