<svg id="visual" viewBox="0 0 900 600" width="900" height="600" xmlns="http://www.w3.org/2000/svg" xmlns:xlink="http://www.w3.org/1999/xlink" version="1.1"><rect x="0" y="0" width="900" height="600" fill="#F0EBCE"></rect><path d="M0 446L30 458.8C60 471.7 120 497.3 180 502.2C240 507 300 491 360 473.3C420 455.7 480 436.3 540 429.3C600 422.3 660 427.7 720 434C780 440.3 840 447.7 870 451.3L900 455L900 601L870 601C840 601 780 601 720 601C660 601 600 601 540 601C480 601 420 601 360 601C300 601 240 601 180 601C120 601 60 601 30 601L0 601Z" fill="#4E6C50" stroke-linecap="round" stroke-linejoin="miter"></path></svg>