<?xml version="1.0" standalone="no"?>
<!DOCTYPE svg PUBLIC "-//W3C//DTD SVG 20010904//EN"
 "http://www.w3.org/TR/2001/REC-SVG-20010904/DTD/svg10.dtd">
<svg version="1.0" xmlns="http://www.w3.org/2000/svg"
 width="1920.000000pt" height="1920.000000pt" viewBox="0 0 1920.000000 1920.000000"
 preserveAspectRatio="xMidYMid meet">

<g transform="translate(0.000000,1920.000000) scale(0.100000,-0.100000)"
fill="#000000" stroke="none">
<path d="M13348 12948 c-112 -141 -228 -405 -277 -629 -48 -224 -56 -318 -56
-654 1 -240 5 -357 18 -470 21 -175 67 -454 96 -575 l21 -84 -28 -29 c-90 -96
-451 -353 -674 -481 -213 -121 -412 -220 -404 -200 58 139 131 383 171 567 72
334 130 822 136 1134 3 122 -8 143 -73 143 -36 0 -46 -7 -132 -94 -266 -268
-419 -653 -478 -1206 -13 -126 -17 -594 -5 -676 l7 -51 -127 -51 c-596 -238
-1204 -400 -1824 -488 -64 -9 -124 -14 -134 -12 -11 2 17 30 89 86 445 349
830 881 1074 1487 58 144 152 437 152 475 0 9 -9 29 -21 44 -30 38 -66 33
-177 -23 -546 -274 -1005 -740 -1299 -1316 -123 -242 -187 -406 -259 -664 -18
-68 -37 -127 -40 -130 -3 -3 -137 -5 -297 -5 -329 2 -564 22 -872 75 -268 45
-349 58 -463 69 -137 14 -471 14 -606 0 -59 -6 -110 -9 -113 -6 -9 8 184 128
292 182 61 29 164 71 230 92 66 22 154 56 195 77 72 36 77 37 122 25 86 -21
160 5 214 75 53 70 42 200 -22 256 -107 93 -265 56 -319 -75 -9 -21 -15 -57
-13 -80 2 -38 0 -42 -36 -62 -21 -12 -102 -43 -180 -69 -156 -52 -285 -110
-390 -174 -38 -23 -70 -40 -72 -38 -2 2 18 30 45 63 643 799 1011 1665 1011
2379 0 236 -24 315 -93 315 -16 0 -77 -25 -137 -55 -706 -361 -1179 -1099
-1389 -2165 -43 -214 -68 -405 -81 -600 -6 -91 -13 -197 -16 -235 l-5 -71
-117 -48 c-595 -247 -1112 -651 -1563 -1221 -156 -198 -289 -405 -289 -450 0
-40 30 -68 72 -68 37 0 43 7 138 155 144 225 315 435 521 640 443 441 905 729
1429 891 80 25 161 48 181 52 35 6 37 5 64 -42 45 -77 201 -297 287 -405 186
-233 475 -534 678 -704 461 -387 944 -659 1470 -828 195 -63 212 -65 245 -31
37 36 31 66 -44 221 -178 369 -433 718 -752 1030 -354 345 -749 601 -1228 795
l-96 39 130 -1 c154 -2 354 -21 508 -48 244 -44 298 -52 452 -71 256 -31 591
-43 895 -31 l265 11 142 -140 c685 -670 1485 -1077 2265 -1151 112 -11 129
-10 151 4 29 19 41 56 28 89 -20 54 -144 202 -290 348 -268 266 -541 460 -910
644 -140 70 -387 174 -499 211 -29 9 -52 19 -49 21 9 9 364 -39 444 -60 48
-13 163 -51 255 -83 161 -56 169 -61 194 -99 79 -122 246 -125 329 -6 77 112
2 281 -133 299 -68 9 -110 -4 -162 -53 l-48 -44 -80 25 c-44 14 -119 41 -167
60 -83 34 -264 76 -390 91 l-60 7 185 47 c382 98 807 239 1119 372 l94 40 31
-23 c307 -229 703 -423 1088 -533 331 -95 573 -129 923 -129 219 0 272 3 430
27 200 29 228 41 233 96 3 27 -3 38 -41 74 -62 57 -283 187 -435 256 -378 172
-856 301 -1362 369 -116 16 -421 50 -449 51 -3 0 50 30 119 66 343 181 660
389 864 568 l69 60 46 -28 c94 -56 309 -156 409 -190 311 -107 771 -188 1158
-203 156 -6 162 -5 182 15 27 27 28 76 3 101 -62 62 -356 238 -530 316 -322
146 -612 221 -958 250 -46 4 -83 10 -83 13 0 3 22 26 48 52 43 42 57 49 114
59 104 18 204 29 328 36 l115 6 28 -41 c97 -144 326 -82 344 93 8 75 -22 138
-84 177 -92 58 -169 48 -248 -33 l-50 -52 -96 -1 c-53 -1 -127 -5 -164 -9
l-68 -7 27 34 c15 18 52 65 82 104 53 69 56 72 115 83 103 21 162 91 162 192
0 67 -20 108 -76 153 -35 28 -45 31 -111 31 -62 0 -78 -4 -114 -28 -75 -49
-105 -158 -65 -241 l17 -36 -49 -62 c-74 -96 -189 -228 -199 -228 -4 0 -5 7
-2 16 10 26 44 229 58 344 14 117 18 658 6 860 -17 275 -85 726 -117 770 -12
17 -29 26 -53 28 -32 3 -40 -2 -70 -40z m61 -453 c55 -463 55 -905 1 -1280
-24 -166 -61 -338 -70 -328 -12 13 -33 399 -39 723 -6 291 -7 301 -18 225 -15
-92 -38 -388 -52 -654 -6 -101 -12 -185 -14 -188 -5 -4 -22 125 -39 291 -17
157 -16 616 0 751 28 227 87 453 154 595 33 70 41 81 48 65 4 -11 17 -101 29
-200z m-5736 -690 c-9 -737 -415 -1611 -1141 -2457 -64 -75 -120 -137 -123
-137 -11 -1 74 280 167 559 185 552 362 941 536 1175 27 36 25 34 -19 -11
-103 -107 -240 -333 -389 -639 -132 -272 -234 -515 -402 -965 -18 -47 -21 -50
-21 -25 -1 50 29 282 60 470 157 925 542 1649 1084 2037 89 63 229 147 240
144 6 -2 9 -59 8 -151z m6289 -392 c22 -19 23 -46 4 -62 -10 -9 -16 -9 -21 -1
-4 6 -18 15 -31 20 -28 11 -31 35 -6 49 24 14 33 13 54 -6z m-1768 -55 c-54
-612 -128 -1028 -241 -1345 -45 -128 -44 -98 18 372 17 126 36 258 44 293 7
35 9 60 5 55 -13 -13 -94 -299 -154 -542 -31 -123 -58 -227 -62 -230 -8 -7 3
242 17 389 29 314 119 647 230 846 42 76 129 204 139 204 4 0 6 -19 4 -42z
m-1545 -524 c-139 -374 -328 -717 -566 -1025 -110 -143 -407 -441 -536 -538
-53 -41 -99 -72 -101 -70 -4 5 249 407 383 609 124 185 260 371 309 423 20 20
32 37 26 37 -37 0 -378 -406 -694 -825 -156 -206 -162 -208 -94 -29 247 660
674 1186 1236 1524 46 28 84 46 86 41 2 -5 -20 -71 -49 -147z m3645 105 c18
-26 8 -59 -21 -70 -26 -9 -63 15 -63 41 0 10 7 26 16 34 22 22 50 20 68 -5z
m-492 -449 c167 -29 390 -92 544 -155 135 -55 369 -173 361 -182 -13 -12 -409
44 -582 83 -212 47 -500 137 -529 164 -4 5 54 -5 130 -21 256 -56 519 -109
534 -108 19 0 -52 27 -360 138 -135 48 -252 90 -260 94 -33 13 55 6 162 -13z
m-6122 -715 c17 -20 4 -62 -21 -70 -15 -5 -28 -1 -42 14 -18 17 -19 24 -9 46
13 29 52 34 72 10z m4865 -246 c575 -73 1109 -224 1504 -422 80 -40 146 -77
148 -83 9 -27 -501 -33 -716 -9 -418 47 -833 179 -1229 392 -57 30 -101 57
-99 59 3 3 78 -16 168 -41 237 -66 764 -200 904 -230 267 -58 465 -89 465 -74
0 3 -24 10 -52 13 -148 20 -827 230 -1243 385 -70 26 -75 30 -45 30 19 1 107
-8 195 -20z m-5508 -620 c330 -116 688 -309 962 -518 395 -301 764 -732 984
-1149 27 -51 47 -96 44 -98 -13 -13 -387 136 -559 222 -522 262 -1031 671
-1429 1149 -114 135 -284 363 -278 370 5 4 546 -381 989 -706 538 -394 628
-459 635 -459 3 0 -79 71 -182 157 -104 86 -309 259 -458 383 -148 124 -382
318 -520 430 -282 230 -318 260 -309 260 3 0 58 -18 121 -41z m3008 -91 c497
-154 946 -391 1312 -695 54 -44 154 -139 223 -209 106 -109 122 -129 103 -132
-31 -5 -269 42 -398 79 -439 123 -938 390 -1340 717 -133 109 -265 225 -261
229 2 2 59 -27 127 -65 334 -186 830 -451 1079 -576 228 -115 300 -144 170
-68 -181 105 -610 374 -1010 633 -63 41 -139 90 -167 109 -29 18 -53 35 -53
37 0 6 47 -7 215 -59z m1241 1 c20 -22 13 -43 -19 -63 -36 -23 -75 36 -47 70
17 20 44 17 66 -7z"/>
</g>
</svg>
