<?xml version="1.0" encoding="UTF-8" standalone="no"?>
<!-- Created with Inkscape (http://www.inkscape.org/) -->

<svg
   version="1.1"
   id="svg2"
   width="1333.3333"
   height="1333.3333"
   viewBox="0 0 1333.3333 1333.3333"
   sodipodi:docname="cute-plant-sticker5-vectorportal.eps"
   xmlns:inkscape="http://www.inkscape.org/namespaces/inkscape"
   xmlns:sodipodi="http://sodipodi.sourceforge.net/DTD/sodipodi-0.dtd"
   xmlns="http://www.w3.org/2000/svg"
   xmlns:svg="http://www.w3.org/2000/svg">
  <defs
     id="defs6" />
  <sodipodi:namedview
     id="namedview4"
     pagecolor="#ffffff"
     bordercolor="#000000"
     borderopacity="0.25"
     inkscape:showpageshadow="2"
     inkscape:pageopacity="0.0"
     inkscape:pagecheckerboard="0"
     inkscape:deskcolor="#d1d1d1" />
  <g
     id="g8"
     inkscape:groupmode="layer"
     inkscape:label="ink_ext_XXXXXX"
     transform="matrix(1.3333333,0,0,-1.3333333,0,1333.3333)">
    <g
       id="g10"
       transform="scale(0.1)">
      <path
         d="M 0,0 H 10000 V 10000 H 0 Z"
         style="fill:#f8daac;fill-opacity:1;fill-rule:nonzero;stroke:none"
         id="path12" />
      <path
         d="m 7624.38,6667.38 c -3.34,145.03 -105.08,265.99 -249.05,294.4 -141.63,27.03 -281.25,-46.25 -338.5,-176.83 -2.01,-4.49 -145.6,-315.73 -484.68,-681.83 122.5,833.94 -45.63,1666.92 -239.25,2281.89 -44.29,141.1 -182.96,230.16 -328.79,212.85 -146.04,-17.22 -259.73,-136.18 -270.35,-282.83 -0.57,-8.13 -43.86,-578.18 -181.95,-1180.72 -218.21,627.69 -453.58,1068.03 -467.36,1093.62 -62.08,114.46 -189.94,177.74 -319.32,156.65 -128.86,-21 -230.55,-121.54 -252.98,-250.11 -5.88,-33.63 -111.21,-646.11 -121.54,-1386.3 -339.6,446.65 -611.57,861.35 -615.45,867.28 -77.05,117.9 -223.8,168.22 -355.43,122.78 -132.69,-44.91 -218.11,-173.87 -207.69,-313.53 41.86,-562.79 166.55,-1088.07 372.23,-1570.79 -222.9,172.25 -446.89,377.11 -646.68,616.84 -86.43,103.55 -233.28,138.56 -356.92,85.38 -125.61,-54 -199.46,-181.57 -183.77,-317.46 5.93,-51.13 67.54,-515.19 402.98,-1052.86 213.76,-342.53 501.9,-644 843.17,-884.5 -2.39,-5.31 -4.78,-11 -7.22,-17.17 L 3087.1,2897.17 c -8.8,-23.1 -14.78,-47.3 -17.89,-72.94 -14.92,-125.42 13.4,-253.8 79.83,-361.51 L 3640.22,1666.9 C 3743.35,1499.78 3922.19,1400 4118.59,1400 h 1982.7 c 193.48,0 376.77,102.27 478.32,266.9 l 491.13,795.72 c 66.48,107.62 94.85,236.05 79.83,362.52 -3.01,24.73 -8.99,48.93 -17.8,72.03 l -0.09,0.24 -529.83,1389.83 c -5.17,13.02 -11.24,25.79 -19.42,40.37 -4.16,7.27 -8.46,14.4 -12.91,21.43 538.15,483.96 1078.31,1240.65 1053.86,2318.34"
         style="fill:#ffffff;fill-opacity:1;fill-rule:nonzero;stroke:none"
         id="path14" />
      <path
         d="m 4863.71,5195.3 c -373.53,1144.3 -69.18,2886.27 -69.18,2886.27 0,0 721.48,-1331.85 795.48,-2667.61 l -726.3,-218.66"
         style="fill:#b0e087;fill-opacity:1;fill-rule:nonzero;stroke:none"
         id="path16" />
      <path
         d="m 4863.71,5195.3 59.06,19.28 c -69.37,212.42 -115.28,447.79 -143.66,689.45 -28.41,241.66 -39.34,489.6 -39.34,727.37 -0.01,387.5 29.03,747.98 58.07,1011.21 14.52,131.62 29.04,238.94 39.9,313.23 5.44,37.15 9.95,66.03 13.11,85.57 1.57,9.76 2.8,17.2 3.64,22.15 0.41,2.48 0.73,4.34 0.94,5.57 l 0.23,1.36 0.07,0.39 -61.2,10.69 -54.62,-29.59 0.09,-0.16 c 4.62,-8.55 183.96,-341.87 370.84,-836.84 186.98,-494.87 381.11,-1151.64 417.14,-1804.46 l 62.03,3.44 -17.91,59.49 -726.3,-218.66 17.91,-59.49 59.06,19.28 -59.06,-19.28 17.91,-59.49 726.3,218.66 c 27.48,8.27 45.71,34.27 44.12,62.92 -37.69,677.81 -238.51,1349.65 -429.43,1853.32 -191.01,503.57 -372.52,838.72 -373.45,840.45 -12.6,23.26 -38.52,35.99 -64.63,31.73 -26.11,-4.26 -46.64,-24.57 -51.2,-50.63 -0.31,-2.11 -117.75,-673.63 -117.81,-1460.86 0,-241.58 11.07,-494.12 40.19,-741.87 29.13,-247.77 76.25,-490.77 148.93,-713.51 10.48,-32.08 44.66,-49.93 76.98,-40.21 l -17.91,59.49"
         style="fill:#211d1d;fill-opacity:1;fill-rule:nonzero;stroke:none"
         id="path18" />
      <path
         d="m 5177.8,4320.67 c 0,0 1771.52,1020.4 842.23,3972.27 0,0 -131.19,-1825.79 -725.51,-2513.33 C 4738.75,5136.68 4625.34,4760.8 4625.34,4760.8 l 552.46,-440.13"
         style="fill:#b0e087;fill-opacity:1;fill-rule:nonzero;stroke:none"
         id="path20" />
      <path
         d="m 5177.8,4320.67 31.01,-53.84 c 5.15,3.04 290.06,167.88 574.89,553.89 142.35,192.97 284.52,441.27 390.96,751.58 106.45,310.28 177.1,682.48 177.08,1122.57 0,461.73 -77.69,998.09 -272.45,1616.72 -8.95,28.45 -36.87,46.52 -66.49,43.05 -29.61,-3.47 -52.6,-27.51 -54.73,-57.25 l -0.09,-1.18 c -1.92,-26.13 -36.9,-482.97 -143.82,-1015.36 -53.42,-266.14 -124.86,-551.16 -218.49,-809.87 -46.79,-129.35 -99.11,-252.1 -157.17,-362.46 -58.04,-110.39 -121.86,-208.34 -190.99,-288.28 -560.88,-648.78 -679.04,-1032.7 -681.65,-1041.5 -7.37,-24.41 0.82,-50.64 20.77,-66.53 l 552.46,-440.13 c 19.95,-15.89 47.61,-17.97 69.72,-5.25 l -31.01,53.84 38.71,48.59 -552.46,440.13 -38.71,-48.59 59.48,-17.95 -19.32,5.83 19.28,-5.96 0.04,0.13 -19.32,5.83 19.28,-5.96 c 0.93,2.89 114.68,369.13 656.74,996.27 78.35,90.67 147.71,198.33 209.87,317.25 108.68,208.1 195.37,450.93 265.13,698.67 104.54,371.56 170.69,754.19 210.95,1044.49 40.23,290.26 54.45,488.07 54.53,489.09 l -61.97,4.45 -59.26,-18.66 c 191.42,-608.08 266.71,-1131.65 266.71,-1579.41 -0.01,-426.81 -68.35,-784.83 -170.36,-1082.25 -153.03,-446.05 -382.07,-756.19 -572.4,-954.91 -95.15,-99.32 -180.59,-170.7 -241.78,-216.95 -30.6,-23.13 -55.12,-39.98 -71.76,-50.9 -8.32,-5.46 -14.66,-9.44 -18.8,-11.99 -2.07,-1.27 -3.59,-2.18 -4.53,-2.74 l -0.98,-0.58 -0.15,-0.09 3.12,-5.37 -3.11,5.38 -0.01,-0.01 3.12,-5.37 -3.11,5.38 15.97,-27.62 -15.96,27.63 -0.01,-0.01 15.97,-27.62 -15.96,27.63 -0.02,-0.01 29.25,-50.63 -29.18,50.66 -0.07,-0.03 29.25,-50.63 -29.18,50.66 31.01,-53.83 38.71,48.59 -38.71,-48.59"
         style="fill:#211d1d;fill-opacity:1;fill-rule:nonzero;stroke:none"
         id="path22" />
      <path
         d="m 5669.61,5133.26 c 142.19,264.22 556.84,1187.56 403.51,2742.03 109.22,-441.6 154.36,-833.75 154.36,-1180.42 -0.01,-426.81 -68.35,-784.83 -170.36,-1082.25 -42.92,-125.13 -91.82,-239.53 -144.18,-343.8 -76.78,-46.43 -157.41,-91.55 -241.93,-134.84 -0.47,-0.24 -0.93,-0.48 -1.4,-0.72"
         style="fill:#d2edb7;fill-opacity:1;fill-rule:nonzero;stroke:none"
         id="path24" />
      <path
         d="m 5644.94,5040.01 c 2.09,3.09 487.15,737.69 487.12,2170.03 0,326.24 -25.16,688.65 -86.88,1086.8 -2.15,13.89 -15.16,23.4 -29.05,21.25 -13.89,-2.15 -23.4,-15.16 -21.25,-29.05 61.33,-395.6 86.28,-755.38 86.28,-1079 -0.01,-710.36 -120.21,-1246.54 -240.13,-1604.84 -59.96,-179.15 -119.86,-313.81 -164.63,-403.5 -22.39,-44.84 -41,-78.44 -53.94,-100.72 -6.47,-11.15 -11.53,-19.46 -14.94,-24.94 -1.7,-2.74 -2.99,-4.78 -3.84,-6.1 l -0.93,-1.45 -0.22,-0.32 -0.04,-0.06 c -7.76,-11.72 -4.54,-27.51 7.18,-35.27 11.72,-7.76 27.51,-4.55 35.27,7.17"
         style="fill:#211d1d;fill-opacity:1;fill-rule:nonzero;stroke:none"
         id="path26" />
      <path
         d="m 5177.8,4320.67 31.01,-53.84 c 5.15,3.04 290.06,167.88 574.89,553.89 142.35,192.97 284.52,441.27 390.96,751.58 106.45,310.28 177.1,682.48 177.08,1122.57 0,461.73 -77.69,998.09 -272.45,1616.72 -8.95,28.45 -36.87,46.52 -66.49,43.05 -29.61,-3.47 -52.6,-27.51 -54.73,-57.25 l -0.09,-1.18 c -1.92,-26.13 -36.9,-482.97 -143.82,-1015.36 -53.42,-266.14 -124.86,-551.16 -218.49,-809.87 -46.79,-129.35 -99.11,-252.1 -157.17,-362.46 -58.04,-110.39 -121.86,-208.34 -190.99,-288.28 -560.88,-648.78 -679.04,-1032.7 -681.65,-1041.5 -7.37,-24.41 0.82,-50.64 20.77,-66.53 l 552.46,-440.13 c 19.95,-15.89 47.61,-17.97 69.72,-5.25 l -31.01,53.84 38.71,48.59 -552.46,440.13 -38.71,-48.59 59.48,-17.95 -19.32,5.83 19.28,-5.96 0.04,0.13 -19.32,5.83 19.28,-5.96 c 0.93,2.89 114.68,369.13 656.74,996.27 78.35,90.67 147.71,198.33 209.87,317.25 108.68,208.1 195.37,450.93 265.13,698.67 104.54,371.56 170.69,754.19 210.95,1044.49 40.23,290.26 54.45,488.07 54.53,489.09 l -61.97,4.45 -59.26,-18.66 c 191.42,-608.08 266.71,-1131.65 266.71,-1579.41 -0.01,-426.81 -68.35,-784.83 -170.36,-1082.25 -153.03,-446.05 -382.07,-756.19 -572.4,-954.91 -95.15,-99.32 -180.59,-170.7 -241.78,-216.95 -30.6,-23.13 -55.12,-39.98 -71.76,-50.9 -8.32,-5.46 -14.66,-9.44 -18.8,-11.99 -2.07,-1.27 -3.59,-2.18 -4.53,-2.74 l -0.98,-0.58 -0.15,-0.09 3.12,-5.37 -3.11,5.38 -0.01,-0.01 3.12,-5.37 -3.11,5.38 15.97,-27.62 -15.96,27.63 -0.01,-0.01 15.97,-27.62 -15.96,27.63 -0.02,-0.01 29.25,-50.63 -29.18,50.66 -0.07,-0.03 29.25,-50.63 -29.18,50.66 31.01,-53.83 38.71,48.59 -38.71,-48.59"
         style="fill:#211d1d;fill-opacity:1;fill-rule:nonzero;stroke:none"
         id="path28" />
      <path
         d="M 4948.61,4045.53 C 2882.31,4548.44 2681.87,6274.01 2681.87,6274.01 3483.61,5311.92 4627.92,4889.18 4627.92,4889.18 l 502.91,-568.51 -182.22,-275.14"
         style="fill:#b0e087;fill-opacity:1;fill-rule:nonzero;stroke:none"
         id="path30" />
      <path
         d="m 4948.61,4045.53 14.7,60.36 c -508.87,123.9 -900.63,322.28 -1203.27,549.67 -226.96,170.57 -403.83,357.6 -541.71,542.38 -206.79,277.12 -325.78,549.31 -392.87,751.72 -33.55,101.19 -54.13,184.9 -66.26,242.89 -6.06,29 -10.01,51.57 -12.43,66.69 -1.2,7.55 -2.03,13.24 -2.53,16.94 -0.26,1.85 -0.43,3.21 -0.54,4.04 l -0.11,0.87 -0.01,0.14 v 0.01 l -12.34,-1.46 12.34,1.45 v 0.01 l -12.34,-1.46 12.34,1.45 -0.01,0.02 -56.09,-6.59 56.1,6.52 -0.01,0.07 -56.09,-6.59 56.1,6.52 -61.71,-7.17 -47.73,-39.77 c 407.4,-488.74 899.55,-838.58 1290.04,-1067.06 390.54,-228.4 679.72,-335.34 682.21,-336.28 l 21.53,58.28 -46.54,-41.16 471.32,-532.8 -155.88,-235.39 51.79,-34.3 14.7,60.36 -14.7,-60.36 51.8,-34.3 182.22,275.14 c 15.53,23.46 13.38,54.39 -5.27,75.47 l -502.91,568.5 c -6.74,7.63 -15.46,13.59 -25,17.12 l -0.09,0.03 c -6.34,2.34 -290.83,108.63 -671.42,332.21 -380.64,223.51 -857.08,564.43 -1248.34,1034.08 -17.54,21.04 -47.04,28.12 -72.22,17.32 -25.18,-10.8 -40.38,-37.05 -37.22,-64.26 0.35,-2.95 13.47,-114.32 65.83,-288.22 78.54,-260.76 245.44,-662.75 591.1,-1048.45 172.8,-192.79 390.27,-381.33 663,-545.47 272.72,-164.15 600.62,-303.84 993.83,-399.53 25.52,-6.22 51.99,4.16 66.49,26.06 l -51.8,34.3"
         style="fill:#211d1d;fill-opacity:1;fill-rule:nonzero;stroke:none"
         id="path32" />
      <path
         d="m 5185.02,4292.02 c 0,0 -1519.19,903.28 -1686.83,3155.45 0,0 894.75,-1369.72 1500.57,-1859.54 605.81,-489.82 679.58,-872.42 679.58,-872.42 l -493.32,-423.49"
         style="fill:#b0e087;fill-opacity:1;fill-rule:nonzero;stroke:none"
         id="path34" />
      <path
         d="m 5185.02,4292.02 31.75,53.4 -20.91,-35.16 20.95,35.14 -0.04,0.02 -20.91,-35.16 20.95,35.14 -0.2,0.12 c -9.94,5.92 -384.01,232.97 -774.93,732.86 -195.51,249.96 -395.33,568.08 -556.56,961.25 -161.23,393.19 -283.95,861.46 -324.97,1412.45 l -61.96,-4.61 -52.01,-33.98 c 0.43,-0.65 224.63,-343.88 525.22,-749.12 150.31,-202.64 319.71,-420.79 490.14,-619.67 170.56,-198.93 341.68,-378.47 498.16,-505.08 297.71,-240.74 462.48,-453.19 552.76,-603.56 45.13,-75.19 71.65,-134.9 86.74,-175 7.55,-20.05 12.24,-35.2 14.96,-44.92 1.37,-4.86 2.24,-8.37 2.73,-10.46 0.24,-1.04 0.4,-1.73 0.47,-2.06 l 0.04,-0.21 19.37,3.94 -19.39,-3.84 0.02,-0.1 19.37,3.94 -19.39,-3.84 40.43,8.01 -40.45,-7.91 0.02,-0.1 40.43,8.01 -40.45,-7.91 v -0.01 l 58.54,11.44 -58.57,-11.29 0.03,-0.15 58.54,11.44 -58.57,-11.29 61.01,11.76 -40.47,47.14 -493.32,-423.49 40.47,-47.14 31.75,53.4 -31.75,-53.4 40.47,-47.13 493.31,423.48 c 17,14.59 24.78,36.91 20.54,58.9 -1.24,6.54 -22.26,109.38 -120.35,272.74 -98.05,163.39 -273.07,387.15 -581.17,636.23 -146.44,118.3 -314.34,293.66 -481.93,489.31 -251.61,293.57 -503.44,633 -691.98,898.66 -94.29,132.84 -172.8,247.27 -227.69,328.43 -27.45,40.58 -48.99,72.84 -63.65,94.92 -7.33,11.05 -12.95,19.54 -16.71,25.27 -1.89,2.86 -3.31,5.03 -4.26,6.47 -0.94,1.45 -1.4,2.14 -1.4,2.14 -15.49,23.72 -45.1,33.96 -71.93,24.87 -26.84,-9.08 -44.14,-35.2 -42.03,-63.46 42.38,-569.67 170.4,-1055.08 338.83,-1462.3 252.64,-610.89 595.89,-1045.6 876.37,-1327.76 280.53,-282.18 498.35,-412.08 501.83,-414.17 22.9,-13.61 52,-11.09 72.22,6.27 l -40.47,47.13"
         style="fill:#211d1d;fill-opacity:1;fill-rule:nonzero;stroke:none"
         id="path36" />
      <path
         d="m 5403.07,3947.33 c 0,0 1958.06,788.79 1914.33,2712.97 0,0 -422.74,-969.38 -1618.06,-1581.62 -871.15,-446.2 -750.73,-1033.15 -750.73,-1033.15 l 454.46,-98.2"
         style="fill:#b0e087;fill-opacity:1;fill-rule:nonzero;stroke:none"
         id="path38" />
      <path
         d="m 5403.07,3947.33 23.22,-57.62 c 2.02,0.82 124.11,50.1 306.62,153.45 273.69,155.09 683.68,431.59 1027.32,850.7 171.75,209.55 326.81,454.9 438.93,738.3 112.12,283.34 181.11,604.71 181.08,964.81 0,21.45 -0.24,43.03 -0.73,64.73 -0.66,29.07 -21.59,53.94 -50.12,59.56 -28.52,5.61 -57.32,-9.47 -68.94,-36.13 l 0.69,-0.3 -0.69,0.31 v -0.01 l 0.69,-0.3 -0.69,0.31 c -1.6,-3.68 -107.18,-242.49 -358.25,-554.61 -251.13,-312.19 -647.4,-697.54 -1231.19,-996.55 -174.86,-89.56 -312.05,-185.34 -419.36,-282.04 -161,-144.97 -254.48,-292.22 -306.85,-421.06 -52.47,-128.86 -63.98,-238.86 -63.97,-310.14 0.01,-52.59 6.22,-84.25 6.93,-87.7 4.93,-24.05 23.74,-43.05 47.73,-48.24 l 454.46,-98.19 c 12.13,-2.62 24.82,-1.54 36.34,3.1 l -23.22,57.62 13.12,60.73 -454.46,98.19 -13.12,-60.72 60.86,12.49 -31.07,-6.38 31.14,6.04 -0.07,0.34 -31.07,-6.38 31.14,6.04 c 0,0.01 -0.27,1.4 -0.69,4.17 -1.25,8.33 -3.76,28.83 -3.76,58.89 0,38.69 4.14,93.16 20.37,158.25 24.4,97.66 75.65,219.22 182.57,348.91 106.96,129.63 270.06,267.63 519.63,395.49 606.94,310.87 1018.06,712.6 1277.47,1036.88 259.45,324.35 367.53,571.4 369.21,575.2 l -56.94,24.83 -62.12,-1.4 c 0.48,-20.79 0.71,-41.43 0.71,-61.93 -0.08,-458.92 -116.67,-848.52 -291.91,-1177.11 -131.46,-246.36 -296.13,-458.2 -469.53,-637.37 -260.05,-268.76 -539.73,-463.83 -754,-591.23 -107.12,-63.71 -197.86,-110.52 -261.54,-141.28 -31.84,-15.39 -56.91,-26.75 -73.88,-34.22 -8.49,-3.73 -14.95,-6.49 -19.22,-8.28 -2.13,-0.9 -3.72,-1.56 -4.73,-1.98 l -1.1,-0.45 -0.22,-0.09 v 0 l 23.21,-57.63 13.12,60.73 -13.12,-60.73"
         style="fill:#211d1d;fill-opacity:1;fill-rule:nonzero;stroke:none"
         id="path40" />
      <path
         d="m 6006.85,4364.98 h -289.12 c 1000.81,657.58 1389.59,1557 1528.92,2009.93 -30.91,-364.06 -136.31,-680.81 -282.57,-955.05 -131.46,-246.36 -296.13,-458.2 -469.53,-637.37 -161.8,-167.22 -331.18,-305.9 -487.7,-417.51"
         style="fill:#d2edb7;fill-opacity:1;fill-rule:nonzero;stroke:none"
         id="path42" />
      <path
         d="m 4969.9,4317.05 -0.85,0.16 c -19.95,3.85 -383.19,77.02 -842.56,358.55 -459.42,281.6 -1015.03,771.11 -1421.72,1609.35 -6.14,12.65 -21.36,17.93 -34.01,11.8 -12.64,-6.14 -17.92,-21.37 -11.79,-34.01 417.75,-861.27 992.62,-1360.59 1463.05,-1643.99 470.47,-283.47 836.46,-351.49 838.61,-351.91 13.82,-2.56 27.1,6.56 29.66,20.39 2.56,13.81 -6.57,27.1 -20.39,29.66"
         style="fill:#211d1d;fill-opacity:1;fill-rule:nonzero;stroke:none"
         id="path44" />
      <path
         d="m 4639.85,4364.98 h -403.63 c -179.34,87.8 -337.16,186.13 -476.18,290.58 -226.96,170.57 -403.83,357.6 -541.71,542.38 -206.79,277.12 -325.78,549.31 -392.87,751.72 -0.48,1.43 -0.95,2.86 -1.42,4.29 396.05,-674.84 886.9,-1087.4 1297.98,-1335.04 197.39,-118.93 376.38,-199.93 517.83,-253.93"
         style="fill:#81a367;fill-opacity:1;fill-rule:nonzero;stroke:none"
         id="path46" />
      <path
         d="m 4122,4364.97 -92.37,39.33 -338.45,225.68 -403.17,382.14 -250.35,340.79 -168.03,314.32 -119.13,313.21 -43.61,186.56 c 37.96,-73.77 77.07,-144.75 117.15,-213.05 0.47,-1.43 0.94,-2.86 1.42,-4.29 67.09,-202.41 186.08,-474.6 392.87,-751.72 137.88,-184.78 314.75,-371.81 541.71,-542.38 139.02,-104.45 296.84,-202.78 476.18,-290.58 h -112.27 c -0.65,0 -1.3,-0.01 -1.95,-0.01"
         style="fill:#211d1d;fill-opacity:1;fill-rule:nonzero;stroke:none"
         id="path48" />
      <path
         d="m 4713.57,4364.98 h -73.72 c -141.45,54 -320.44,135 -517.83,253.93 -411.08,247.64 -901.93,660.2 -1297.98,1335.04 -40.08,68.3 -79.19,139.28 -117.15,213.05 l -25.02,107.01 C 3299.62,5000.58 4261,4525.11 4713.57,4364.98"
         style="fill:#211d1d;fill-opacity:1;fill-rule:nonzero;stroke:none"
         id="path50" />
      <path
         d="m 3473.74,7440.39 c 0.25,-0.82 136.18,-470.69 408.87,-1059.04 272.82,-588.33 681.9,-1295.32 1231.58,-1770.62 10.63,-9.19 26.7,-8.02 35.89,2.61 9.19,10.63 8.02,26.71 -2.61,35.9 -540.49,466.91 -947.73,1168.66 -1218.68,1753.52 -135.54,292.41 -237.15,555.57 -304.83,745.52 -33.84,94.97 -59.2,171.64 -76.09,224.51 -8.44,26.44 -14.76,46.92 -18.97,60.78 -2.1,6.93 -3.67,12.19 -4.72,15.72 -1.04,3.52 -1.54,5.24 -1.54,5.25 -3.91,13.5 -18.02,21.28 -31.52,17.37 -13.51,-3.9 -21.28,-18.02 -17.38,-31.52 v 0"
         style="fill:#211d1d;fill-opacity:1;fill-rule:nonzero;stroke:none"
         id="path52" />
      <path
         d="m 4984.53,4516.31 c -144.92,119.78 -341.67,304.8 -542.85,562.07 -195.51,249.96 -395.33,568.08 -556.56,961.25 -120.08,292.83 -218.79,627.27 -278.3,1006.54 66.75,-181.22 158.65,-412.08 275.79,-664.82 265.23,-571.95 659.26,-1256.09 1186.03,-1730.43 -33.45,-45.86 -61.2,-90.95 -84.11,-134.61"
         style="fill:#81a367;fill-opacity:1;fill-rule:nonzero;stroke:none"
         id="path54" />
      <path
         d="m 4963.64,4474.11 -402.11,364.56 -390.18,514.24 -265,453.99 -243.27,688.33 -111.02,500.28 -37.56,315.12 c 21.92,-66.77 52.68,-156.85 92.32,-264.46 59.51,-379.27 158.22,-713.71 278.3,-1006.54 161.23,-393.17 361.05,-711.29 556.56,-961.25 201.18,-257.27 397.93,-442.29 542.85,-562.07 -7.47,-14.23 -14.42,-28.3 -20.89,-42.2"
         style="fill:#211d1d;fill-opacity:1;fill-rule:nonzero;stroke:none"
         id="path56" />
      <path
         d="m 5068.64,4650.92 v 0 c -526.77,474.34 -920.8,1158.48 -1186.03,1730.43 -117.14,252.74 -209.04,483.6 -275.79,664.82 -39.64,107.61 -70.4,197.69 -92.32,264.46 l -16.31,136.84 c 0,0 526.96,-1821.47 1585.74,-2776.08 -5.22,-6.84 -10.32,-13.66 -15.29,-20.47"
         style="fill:#211d1d;fill-opacity:1;fill-rule:nonzero;stroke:none"
         id="path58" />
      <path
         d="m 7292.23,6664.1 -0.17,-1.08 c -3.87,-24.53 -76.77,-462.51 -383.31,-999.26 -306.64,-536.82 -846.2,-1172.33 -1785.37,-1595.02 -12.82,-5.77 -18.53,-20.84 -12.76,-33.66 5.77,-12.81 20.83,-18.53 33.65,-12.76 965.3,434.3 1515.38,1092.65 1823.3,1642.03 308.03,549.47 374.65,990.08 374.99,992.15 2.1,13.9 -7.47,26.87 -21.37,28.97 -13.9,2.09 -26.86,-7.47 -28.96,-21.37"
         style="fill:#211d1d;fill-opacity:1;fill-rule:nonzero;stroke:none"
         id="path60" />
      <path
         d="m 5403.07,3947.33 23.22,-57.62 c 2.02,0.82 124.11,50.1 306.62,153.45 273.69,155.09 683.68,431.59 1027.32,850.7 171.75,209.55 326.81,454.9 438.93,738.3 112.12,283.34 181.11,604.71 181.08,964.81 0,21.45 -0.24,43.03 -0.73,64.73 -0.66,29.07 -21.59,53.94 -50.12,59.56 -28.52,5.61 -57.32,-9.47 -68.94,-36.13 l 0.69,-0.3 -0.69,0.31 v -0.01 l 0.69,-0.3 -0.69,0.31 c -1.6,-3.68 -107.18,-242.49 -358.25,-554.61 -251.13,-312.19 -647.4,-697.54 -1231.19,-996.55 -174.86,-89.56 -312.05,-185.34 -419.36,-282.04 -161,-144.97 -254.48,-292.22 -306.85,-421.06 -52.47,-128.86 -63.98,-238.86 -63.97,-310.14 0.01,-52.59 6.22,-84.25 6.93,-87.7 4.93,-24.05 23.74,-43.05 47.73,-48.24 l 454.46,-98.19 c 12.13,-2.62 24.82,-1.54 36.34,3.1 l -23.22,57.62 13.12,60.73 -454.46,98.19 -13.12,-60.72 60.86,12.49 -31.07,-6.38 31.14,6.04 -0.07,0.34 -31.07,-6.38 31.14,6.04 c 0,0.01 -0.27,1.4 -0.69,4.17 -1.25,8.33 -3.76,28.83 -3.76,58.89 0,38.69 4.14,93.16 20.37,158.25 24.4,97.66 75.65,219.22 182.57,348.91 106.96,129.63 270.06,267.63 519.63,395.49 606.94,310.87 1018.06,712.6 1277.47,1036.88 259.45,324.35 367.53,571.4 369.21,575.2 l -56.94,24.83 -62.12,-1.4 c 0.48,-20.79 0.71,-41.43 0.71,-61.93 -0.08,-458.92 -116.67,-848.52 -291.91,-1177.11 -131.46,-246.36 -296.13,-458.2 -469.53,-637.37 -260.05,-268.76 -539.73,-463.83 -754,-591.23 -107.12,-63.71 -197.86,-110.52 -261.54,-141.28 -31.84,-15.39 -56.91,-26.75 -73.88,-34.22 -8.49,-3.73 -14.95,-6.49 -19.22,-8.28 -2.13,-0.9 -3.72,-1.56 -4.73,-1.98 l -1.1,-0.45 -0.22,-0.09 v 0 l 23.21,-57.63 13.12,60.73 -13.12,-60.73"
         style="fill:#211d1d;fill-opacity:1;fill-rule:nonzero;stroke:none"
         id="path62" />
      <path
         d="m 4813.19,7995.97 c 0.37,-150.72 4.05,-550.73 30.51,-1013.61 26.51,-462.96 75.64,-988.5 167.56,-1391.85 3.13,-13.7 16.77,-22.28 30.47,-19.16 13.71,3.13 22.29,16.77 19.16,30.48 -90.79,398.04 -140.01,922.02 -166.37,1383.44 -26.39,461.49 -30.06,860.72 -30.42,1010.82 -0.04,14.06 -11.46,25.43 -25.52,25.39 -14.05,-0.03 -25.42,-11.45 -25.38,-25.51 h -0.01"
         style="fill:#211d1d;fill-opacity:1;fill-rule:nonzero;stroke:none"
         id="path64" />
      <path
         d="m 4993.32,5673.36 c -67.04,57.61 -137.91,125.8 -210.68,201.35 -1.2,9.75 -2.38,19.54 -3.53,29.32 -28.41,241.66 -39.34,489.6 -39.34,727.37 -0.01,387.5 29.03,747.98 58.07,1011.21 5.83,52.81 11.65,101.71 17.24,146.12 2.97,-198.26 10.39,-487.38 28.62,-806.37 24.73,-431.87 69.14,-918.2 149.62,-1309"
         style="fill:#81a367;fill-opacity:1;fill-rule:nonzero;stroke:none"
         id="path66" />
      <path
         d="m 4782.64,5874.71 c -23.12,24 -46.42,48.74 -69.87,74.12 l -12.22,115.07 -22.9,372.73 15.4,703.68 45.15,527.84 32.53,257.92 42.55,43.84 c 0.2,-45.54 0.69,-107 1.8,-181.18 -5.59,-44.41 -11.41,-93.31 -17.24,-146.12 -29.04,-263.23 -58.08,-623.71 -58.07,-1011.21 0,-237.77 10.93,-485.71 39.34,-727.37 1.15,-9.78 2.33,-19.57 3.53,-29.32"
         style="fill:#211d1d;fill-opacity:1;fill-rule:nonzero;stroke:none"
         id="path68" />
      <path
         d="m 5007.1,5608.99 -69.74,30.85 -98.71,90.87 -115.03,115.93 -10.85,102.19 c 23.45,-25.38 46.75,-50.12 69.87,-74.12 72.77,-75.55 143.64,-143.74 210.68,-201.35 4.48,-21.76 9.07,-43.23 13.78,-64.37"
         style="fill:#211d1d;fill-opacity:1;fill-rule:nonzero;stroke:none"
         id="path70" />
      <path
         d="m 5036.08,5596.17 -28.98,12.82 c -4.71,21.14 -9.3,42.61 -13.78,64.37 -80.48,390.8 -124.89,877.13 -149.62,1309 -18.23,318.99 -25.65,608.11 -28.62,806.37 -1.11,74.18 -1.6,135.64 -1.8,181.18 l 25.37,26.12 c 0.72,-300.82 14.71,-1598.47 197.43,-2399.86"
         style="fill:#211d1d;fill-opacity:1;fill-rule:nonzero;stroke:none"
         id="path72" />
      <path
         d="m 5109.93,1707.04 h -991.35 c -88.47,0 -170.62,45.83 -217.09,121.11 l -491.17,795.81 c -30.25,49.02 -43.03,106.84 -36.24,164.04 l 528.63,1386.76 c 45.49,79.23 129.87,128.09 221.24,128.09 h 985.98 985.98 c 91.36,0 175.75,-48.86 221.23,-128.09 L 6845.77,2788 c 6.79,-57.2 -5.98,-115.02 -36.24,-164.04 l -491.17,-795.81 c -46.46,-75.28 -128.61,-121.11 -217.08,-121.11 h -991.35"
         style="fill:#fbda4c;fill-opacity:1;fill-rule:nonzero;stroke:none"
         id="path74" />
      <path
         d="m 5109.93,1707.04 v 62.13 h -991.35 c -66.93,-0.01 -129.07,34.67 -164.22,91.61 l -491.17,795.81 c -18.88,30.59 -28.76,65.71 -28.76,101.35 0,7.58 0.44,15.16 1.34,22.72 l -61.69,7.34 58.05,-22.13 528.63,1386.76 -58.05,22.13 53.88,-30.93 c 34.4,59.93 98.25,96.89 167.36,96.89 h 985.98 985.98 c 69.11,0 132.95,-36.96 167.35,-96.89 l 53.88,30.93 -58.05,-22.13 528.63,-1386.76 58.05,22.13 -61.69,-7.32 c 0.9,-7.58 1.34,-15.17 1.34,-22.74 0,-35.64 -9.88,-70.76 -28.76,-101.35 l -491.17,-795.81 c -35.14,-56.94 -97.29,-91.62 -164.21,-91.61 h -991.35 v -62.13 -62.13 h 991.35 c 110.02,0 212.17,57 269.95,150.62 l 491.17,795.8 c 31.03,50.29 47.28,108.01 47.28,166.61 0,12.44 -0.74,24.92 -2.21,37.37 -0.61,5.17 -1.79,9.96 -3.64,14.82 L 6375.2,4196.89 c -1.31,3.42 -2.35,5.62 -4.17,8.8 -56.57,98.53 -161.51,159.28 -275.12,159.29 h -985.98 -985.98 c -113.62,-0.01 -218.55,-60.76 -275.12,-159.29 -1.83,-3.18 -2.87,-5.38 -4.17,-8.8 L 3316.03,2810.13 c -1.85,-4.86 -3.03,-9.63 -3.64,-14.79 -1.48,-12.47 -2.22,-24.96 -2.22,-37.4 0,-58.6 16.25,-116.32 47.28,-166.61 l 491.17,-795.8 c 57.79,-93.62 159.94,-150.62 269.96,-150.62 h 991.35 v 62.13"
         style="fill:#211d1d;fill-opacity:1;fill-rule:nonzero;stroke:none"
         id="path76" />
      <path
         d="m 6101.29,1769.17 c -0.01,0 0,0 -0.01,0 h -81.85 c 19.39,16.76 36.39,36.56 50.23,58.98 l 491.16,795.82 c 30.26,49.03 43.03,106.84 36.25,164.03 l -528.64,1386.78 c -14.5,25.27 -32.97,47.45 -54.36,65.94 h 81.84 c 67.59,0 130.14,-35.35 165.05,-92.98 l 523.83,-1374.18 c 0.42,-5.21 0.63,-10.42 0.63,-15.62 0,-35.64 -9.88,-70.76 -28.76,-101.35 l -491.17,-795.81 c -35.14,-56.94 -97.29,-91.61 -164.2,-91.61"
         style="fill:#fbe991;fill-opacity:1;fill-rule:nonzero;stroke:none"
         id="path78" />
      <path
         d="m 5109.93,1707.04 v 62.13 h -991.35 c -66.93,-0.01 -129.07,34.67 -164.22,91.61 l -491.17,795.81 c -18.88,30.59 -28.76,65.71 -28.76,101.35 0,7.58 0.44,15.16 1.34,22.72 l -61.69,7.34 58.05,-22.13 528.63,1386.76 -58.05,22.13 53.88,-30.93 c 34.4,59.93 98.25,96.89 167.36,96.89 h 985.98 985.98 c 69.11,0 132.95,-36.96 167.35,-96.89 l 53.88,30.93 -58.05,-22.13 528.63,-1386.76 58.05,22.13 -61.69,-7.32 c 0.9,-7.58 1.34,-15.17 1.34,-22.74 0,-35.64 -9.88,-70.76 -28.76,-101.35 l -491.17,-795.81 c -35.14,-56.94 -97.29,-91.62 -164.21,-91.61 h -991.35 v -62.13 -62.13 h 991.35 c 110.02,0 212.17,57 269.95,150.62 l 491.17,795.8 c 31.03,50.29 47.28,108.01 47.28,166.61 0,12.44 -0.74,24.92 -2.21,37.37 -0.61,5.17 -1.79,9.96 -3.64,14.82 L 6375.2,4196.89 c -1.31,3.42 -2.35,5.62 -4.17,8.8 -56.57,98.53 -161.51,159.28 -275.12,159.29 h -985.98 -985.98 c -113.62,-0.01 -218.55,-60.76 -275.12,-159.29 -1.83,-3.18 -2.87,-5.38 -4.17,-8.8 L 3316.03,2810.13 c -1.85,-4.86 -3.03,-9.63 -3.64,-14.79 -1.48,-12.47 -2.22,-24.96 -2.22,-37.4 0,-58.6 16.25,-116.32 47.28,-166.61 l 491.17,-795.8 c 57.79,-93.62 159.94,-150.62 269.96,-150.62 h 991.35 v 62.13"
         style="fill:#211d1d;fill-opacity:1;fill-rule:nonzero;stroke:none"
         id="path80" />
      <path
         d="m 4200.43,1769.17 h -81.85 c -66.93,-0.01 -129.07,34.67 -164.22,91.61 l -491.17,795.81 c -18.88,30.59 -28.76,65.71 -28.76,101.35 0,5.21 0.21,10.42 0.63,15.61 l 523.85,1374.2 c 34.9,57.62 97.45,92.97 165.03,92.97 0.01,0 0,0 0.01,0 h 81.84 c -21.39,-18.49 -39.86,-40.67 -54.37,-65.94 L 3622.78,2788 c -6.78,-57.19 6,-115 36.25,-164.03 l 491.17,-795.82 c 13.84,-22.42 30.84,-42.22 50.23,-58.98"
         style="fill:#b79f3f;fill-opacity:1;fill-rule:nonzero;stroke:none"
         id="path82" />
      <path
         d="m 4367.28,1707.06 h -248.71 c -88.46,0 -170.62,45.8 -217.08,121.09 l -491.18,795.82 c -30.24,49.03 -43.01,106.84 -36.23,164.03 l 528.63,1386.78 c 45.48,79.2 129.88,128.08 221.23,128.08 h 248.72 c -62.22,0 -121.2,-22.67 -166.87,-62.14 h -81.84 c -0.01,0 0,0 -0.01,0 -67.58,0 -130.13,-35.35 -165.03,-92.97 l -523.85,-1374.2 c -0.42,-5.19 -0.63,-10.4 -0.63,-15.61 v 0 c 0,-35.64 9.88,-70.76 28.76,-101.35 l 491.17,-795.81 c 35.15,-56.94 97.29,-91.62 164.22,-91.61 h 81.85 c 45.73,-39.53 104.73,-62.11 166.85,-62.11"
         style="fill:#211d1d;fill-opacity:1;fill-rule:nonzero;stroke:none"
         id="path84" />
      <path
         d="m 5062.72,3478.7 c 38.53,1.8 93.09,36.94 122.82,61.52 21.25,17.57 37.8,25.21 57.1,25.21 28.85,0 52.47,-22.88 53.46,-51.71 0.07,-1.84 0.1,-3.68 0.1,-5.54 0,-97.5 -102.28,-262.28 -248.25,-262.16 -146.36,-0.12 -248.25,164.66 -248.25,262.16 0,1.86 0.04,3.7 0.1,5.54 0.99,28.83 24.61,51.71 53.46,51.71 19.3,0 35.85,-7.64 57.1,-25.21 29.74,-24.58 94.87,-59.72 133.4,-61.52 9.74,-0.46 9.22,-0.46 18.96,0"
         style="fill:#211d1d;fill-opacity:1;fill-rule:nonzero;stroke:none"
         id="path86" />
      <path
         d="m 6123.26,3626.25 c 0,-166.9 -135.3,-302.19 -302.2,-302.19 -166.9,0 -302.2,135.29 -302.2,302.19 0,166.9 135.3,302.2 302.2,302.2 166.9,0 302.2,-135.3 302.2,-302.2"
         style="fill:#211d1d;fill-opacity:1;fill-rule:nonzero;stroke:none"
         id="path88" />
      <path
         d="m 5855,3724.5 c 0,-60.59 -49.12,-109.71 -109.71,-109.71 -60.6,0 -109.72,49.12 -109.72,109.71 0,60.6 49.12,109.72 109.72,109.72 60.59,0 109.71,-49.12 109.71,-109.72"
         style="fill:#ffffff;fill-opacity:1;fill-rule:nonzero;stroke:none"
         id="path90" />
      <path
         d="m 4206.67,3757.39 293.76,-174.02 c 4.29,-2.56 6.26,-4.93 7.3,-6.62 1.01,-1.72 1.22,-2.85 1.24,-4.01 -0.03,-1.35 -0.33,-2.93 -1.97,-5.23 -1.66,-2.24 -4.8,-5.2 -10.97,-7.72 l -284.34,-115.03 c -19.09,-7.72 -28.3,-29.45 -20.58,-48.53 7.72,-19.09 29.45,-28.3 48.54,-20.58 l 284.34,115.03 c 17.67,7.12 32.65,18.42 43.15,32.78 10.52,14.3 16.41,31.65 16.38,49.28 0.03,14.8 -4.14,29.67 -12.02,42.63 -7.86,13 -19.3,24 -33.08,32.14 l -293.75,174.02 c -17.72,10.5 -40.58,4.64 -51.07,-13.07 -10.49,-17.71 -4.64,-40.58 13.07,-51.07"
         style="fill:#211d1d;fill-opacity:1;fill-rule:nonzero;stroke:none"
         id="path92" />
      <path
         d="m 4499.41,3106.36 c 0,-67.52 -90.17,-122.25 -201.4,-122.25 -111.24,0 -201.41,54.73 -201.41,122.25 0,67.51 90.17,122.24 201.41,122.24 111.23,0 201.4,-54.73 201.4,-122.24"
         style="fill:#f4a5d6;fill-opacity:1;fill-rule:nonzero;stroke:none"
         id="path94" />
      <path
         d="m 6117.91,3106.36 c 0,-67.52 -90.17,-122.25 -201.4,-122.25 -111.24,0 -201.41,54.73 -201.41,122.25 0,67.51 90.17,122.24 201.41,122.24 111.23,0 201.4,-54.73 201.4,-122.24"
         style="fill:#f4a5d6;fill-opacity:1;fill-rule:nonzero;stroke:none"
         id="path96" />
      <path
         d="m 3424.43,2681.39 h 3415.16 c 34.31,0 62.13,27.81 62.13,62.13 0,34.31 -27.82,62.12 -62.13,62.12 H 3424.43 c -34.31,0 -62.13,-27.81 -62.13,-62.12 0,-34.32 27.82,-62.13 62.13,-62.13"
         style="fill:#211d1d;fill-opacity:1;fill-rule:nonzero;stroke:none"
         id="path98" />
    </g>
  </g>
</svg>
